<?xml version="1.0" encoding="utf-8" ?>
<svg baseProfile="tiny" height="100%" version="1.2" width="100%" xmlns="http://www.w3.org/2000/svg" xmlns:ev="http://www.w3.org/2001/xml-events" xmlns:xlink="http://www.w3.org/1999/xlink"><defs /><path d="M92.0,22.0 L54.0,59.0 L59.0,136.0 L95.0,176.0 L538.0,168.0 L500.0,87.0 L141.0,22.0 L92.0,22.0 Z" fill="rgb(77, 161, 169)" stroke="black" stroke-width="1" /><path d="M253.0,190.0 L236.0,211.0 L215.0,371.0 L227.0,424.0 L271.0,347.0 L278.0,326.0 L299.0,215.0 L253.0,190.0 Z" fill="rgb(77, 161, 169)" stroke="black" stroke-width="1" /><path d="M410.0,201.0 L396.0,218.0 L334.0,332.0 L475.0,350.0 L476.0,348.0 L410.0,201.0 Z" fill="rgb(77, 161, 169)" stroke="black" stroke-width="1" /><path d="M452.0,232.0 L474.0,573.0 L542.0,473.0 L548.0,277.0 L452.0,232.0 Z" fill="rgb(77, 161, 169)" stroke="black" stroke-width="1" /><path d="M179.0,138.0 L196.5,79.0 L196.50000000000003,77.42105263157899 L196.5,75.84210526315789 L196.49999999999997,74.26315789473679 L196.50000000000003,72.68421052631578 L196.50000000000003,71.1052631578948 L196.5,69.5263157894737 L196.5,67.9473684210526 L196.50000000000003,66.36842105263159 L196.50000000000003,64.78947368421052 L196.5,63.21052631578948 L196.5,61.63157894736844 L196.5,60.05263157894737 L196.5,58.47368421052633 L196.5,56.89473684210526 L196.5,55.31578947368422 L196.5,53.73684210526312 L196.5,52.15789473684208 L196.5,50.57894736842104 L196.5,49.0 L215.5,41.0 L216.92105263157896,41.4986149584488 L218.34210526315792,41.94182825484765 L219.7631578947368,42.32963988919664 L221.18421052631578,42.66204986149583 L222.6052631578948,42.93905817174519 L224.0263157894737,43.1606648199446 L225.44736842105263,43.32686980609415 L226.86842105263156,43.4376731301939 L228.28947368421055,43.49307479224379 L229.71052631578948,43.49307479224376 L231.13157894736844,43.4376731301939 L232.5526315789474,43.32686980609418 L233.9736842105263,43.1606648199446 L235.39473684210526,42.93905817174516 L236.81578947368422,42.66204986149586 L238.23684210526315,42.3296398891967 L239.65789473684208,41.94182825484762 L241.07894736842104,41.49861495844874 L242.5,41.0 L249.5,43.0 L249.5,43.0 L249.53324099722994,44.57894736842107 L249.63296398891967,46.15789473684208 L249.79916897506922,47.73684210526312 L250.03185595567868,49.31578947368419 L250.33102493074793,50.89473684210529 L250.696675900277,52.47368421052633 L251.1288088642659,54.05263157894734 L251.6274238227147,55.63157894736841 L252.19252077562328,57.21052631578951 L252.82409972299166,58.78947368421052 L253.52216066481995,60.36842105263156 L254.28670360110803,61.94736842105263 L255.11772853185596,63.5263157894737 L256.0152354570637,65.10526315789474 L256.97922437673134,66.68421052631578 L258.0096952908587,68.26315789473682 L259.106648199446,69.84210526315789 L260.27008310249306,71.42105263157893 L261.5,73.0 L279.0,172.0 L179.0,138.0 Z" fill="rgb(255, 167, 51)" stroke="black" stroke-width="1" /><path d="M83.0,156.0 L100.5,57.0 L101.72991689750694,55.42105263157896 L102.89335180055403,53.84210526315789 L103.99030470914124,52.26315789473682 L105.02077562326869,50.68421052631578 L105.98476454293632,49.10526315789477 L106.88227146814404,47.5263157894737 L107.71329639889194,45.94736842105263 L108.47783933518005,44.36842105263162 L109.17590027700834,42.78947368421058 L109.80747922437672,41.21052631578948 L110.37257617728531,39.63157894736844 L110.87119113573408,38.05263157894734 L111.303324099723,36.4736842105263 L111.6689750692521,34.89473684210526 L111.96814404432132,33.31578947368422 L112.20083102493072,31.73684210526315 L112.36703601108033,30.15789473684211 L112.46675900277009,28.57894736842104 L112.5,27.0 L119.5,25.0 L120.92105263157896,25.2493074792244 L122.34210526315792,25.47091412742381 L123.76315789473679,25.66481994459832 L125.18421052631578,25.83102493074793 L126.6052631578948,25.969529085872608 L128.0263157894737,26.0803324099723 L129.44736842105263,26.16343490304706 L130.86842105263156,26.21883656509692 L132.28947368421055,26.24653739612191 L133.71052631578948,26.24653739612188 L135.13157894736844,26.21883656509695 L136.5526315789474,26.16343490304709 L137.9736842105263,26.0803324099723 L139.39473684210526,25.96952908587258 L140.81578947368422,25.83102493074793 L142.23684210526315,25.66481994459832 L143.65789473684208,25.47091412742384 L145.07894736842104,25.24930747922437 L146.5,25.0 L165.5,33.0 L165.5,33.0 L165.50000000000003,34.57894736842104 L165.49999999999997,36.15789473684211 L165.49999999999994,37.73684210526312 L165.50000000000003,39.31578947368419 L165.50000000000003,40.89473684210529 L165.5,42.47368421052633 L165.49999999999997,44.05263157894734 L165.5,45.63157894736844 L165.50000000000006,47.21052631578948 L165.5,48.78947368421049 L165.5,50.36842105263159 L165.5,51.94736842105263 L165.5,53.5263157894737 L165.5,55.10526315789474 L165.5,56.68421052631578 L165.5,58.26315789473685 L165.5,59.84210526315789 L165.5,61.42105263157893 L165.5,63.0 L183.0,122.0 L83.0,156.0 Z" fill="rgb(255, 167, 51)" stroke="black" stroke-width="1" /><path d="M398.0,161.0 L428.0,101.0 L428.0831024930748,101.00000000000006 L428.33240997229916,101.0 L428.7479224376731,100.99999999999994 L429.32963988919664,101.0 L430.07756232686984,101.00000000000003 L430.99168975069256,101.0 L432.0720221606648,100.99999999999997 L433.3185595567867,101.0 L434.7313019390582,101.00000000000003 L436.31024930747924,101.0 L438.05540166204986,101.0 L439.9667590027701,101.0 L442.0443213296399,101.0 L444.28808864265926,101.0 L446.69806094182826,101.0 L449.2742382271468,101.0 L452.01662049861494,101.0 L454.9252077562327,101.0 L458.0,101.0 L458.0,101.0 L461.0747922437673,101.00000000000006 L463.983379501385,101.0 L466.72576177285316,100.99999999999994 L469.30193905817174,101.0 L471.7119113573408,101.00000000000003 L473.9556786703601,101.0 L476.0332409972299,100.99999999999997 L477.94459833795014,101.0 L479.6897506925208,101.00000000000003 L481.26869806094186,101.0 L482.6814404432133,101.0 L483.9279778393352,101.0 L485.00831024930744,101.0 L485.92243767313016,101.0 L486.67036011080336,101.0 L487.25207756232686,101.0 L487.66759002770084,101.0 L487.91689750692524,101.0 L488.0,101.0 L518.0,161.0 L398.0,161.0 Z" fill="rgb(255, 167, 51)" stroke="black" stroke-width="1" /><path d="M292.0,150.0 L309.5,90.0 L310.1814404432133,88.77008310249309 L310.96260387811634,87.60664819944597 L311.8434903047091,86.50969529085867 L312.8240997229917,85.47922437673131 L313.904432132964,84.51523545706374 L315.0844875346261,83.61772853185596 L316.36426592797784,82.78670360110803 L317.74376731301936,82.02216066481995 L319.22299168975076,81.32409972299172 L320.80193905817174,80.69252077562328 L322.48060941828254,80.12742382271466 L324.2590027700831,79.62880886426595 L326.1371191135734,79.196675900277 L328.11495844875344,78.8310249307479 L330.1925207756233,78.53185595567868 L332.3698060941828,78.29916897506922 L334.6468144044321,78.13296398891967 L337.0235457063712,78.03324099722991 L339.5,78.0 L339.5,78.0 L341.9764542936288,78.03324099722994 L344.3531855955679,78.13296398891967 L346.6301939058171,78.2991689750692 L348.8074792243767,78.53185595567868 L350.88504155124656,78.83102493074796 L352.8628808864266,79.196675900277 L354.74099722991684,79.62880886426589 L356.51939058171746,80.12742382271466 L358.1980609418283,80.69252077562328 L359.7770083102493,81.32409972299172 L361.25623268698064,82.02216066481992 L362.63573407202216,82.78670360110803 L363.915512465374,83.61772853185596 L365.095567867036,84.51523545706371 L366.1759002770083,85.47922437673131 L367.1565096952909,86.5096952908587 L368.03739612188366,87.60664819944597 L368.8185595567867,88.77008310249306 L369.5,90.0 L387.0,150.0 L292.0,150.0 Z" fill="rgb(255, 167, 51)" stroke="black" stroke-width="1" /></svg>