<?xml version="1.0" encoding="utf-8" ?>
<svg baseProfile="tiny" height="100%" version="1.2" width="100%" xmlns="http://www.w3.org/2000/svg" xmlns:ev="http://www.w3.org/2001/xml-events" xmlns:xlink="http://www.w3.org/1999/xlink"><defs /><path d="M366.0,10.0 L82.0,19.0 L42.0,197.0 L356.0,161.0 L366.0,10.0 Z" fill="rgb(77, 161, 169)" stroke="black" stroke-width="1" /><path d="M293.0,0.0 L233.0,12.0 L212.0,154.0 L209.0,436.0 L300.0,289.0 L296.0,116.0 L293.0,0.0 Z" fill="rgb(77, 161, 169)" stroke="black" stroke-width="1" /><path d="M347.0,212.0 L322.0,325.0 L369.0,338.0 L468.0,331.0 L488.0,316.0 L458.0,218.0 L347.0,212.0 Z" fill="rgb(77, 161, 169)" stroke="black" stroke-width="1" /><path d="M469.0,320.0 L455.0,493.0 L568.0,528.0 L600.0,523.0 L577.0,362.0 L469.0,320.0 Z" fill="rgb(77, 161, 169)" stroke="black" stroke-width="1" /><path d="M211.0,293.0 L223.0,193.0 L223.00000000000003,191.42105263157896 L223.0,189.8421052631579 L222.99999999999997,188.26315789473682 L223.0,186.6842105263158 L223.00000000000003,185.1052631578948 L223.0,183.52631578947367 L223.0,181.9473684210526 L223.0,180.3684210526316 L223.00000000000003,178.78947368421055 L223.0,177.21052631578948 L223.0,175.63157894736844 L223.0,174.05263157894737 L223.0,172.47368421052633 L223.0,170.89473684210526 L223.0,169.31578947368422 L223.0,167.73684210526315 L223.0,166.1578947368421 L223.0,164.57894736842107 L223.0,163.0 L240.5,153.0 L242.07894736842107,153.49861495844877 L243.65789473684208,153.94182825484765 L245.23684210526312,154.32963988919667 L246.81578947368422,154.66204986149583 L248.3947368421053,154.9390581717452 L249.97368421052633,155.1606648199446 L251.55263157894734,155.32686980609418 L253.1315789473684,155.4376731301939 L254.71052631578948,155.4930747922438 L256.2894736842105,155.49307479224376 L257.86842105263156,155.4376731301939 L259.4473684210526,155.32686980609418 L261.0263157894737,155.1606648199446 L262.60526315789474,154.93905817174516 L264.1842105263158,154.66204986149586 L265.7631578947368,154.32963988919667 L267.34210526315786,153.94182825484765 L268.92105263157896,153.49861495844874 L270.5,153.0 L282.0,159.0 L282.0,159.0 L282.016620498615,160.57894736842107 L282.0664819944598,162.15789473684208 L282.1495844875346,163.73684210526315 L282.26592797783934,165.3157894736842 L282.41551246537404,166.8947368421053 L282.5983379501385,168.47368421052633 L282.81440443213296,170.05263157894734 L283.06371191135736,171.63157894736844 L283.34626038781164,173.21052631578948 L283.66204986149586,174.78947368421052 L284.01108033240996,176.3684210526316 L284.393351800554,177.94736842105263 L284.808864265928,179.5263157894737 L285.25761772853184,181.10526315789474 L285.73961218836564,182.68421052631578 L286.2548476454293,184.26315789473682 L286.803324099723,185.8421052631579 L287.38504155124656,187.42105263157893 L288.0,189.0 L300.0,289.0 L211.0,293.0 Z" fill="rgb(255, 167, 51)" stroke="black" stroke-width="1" /><path d="M251.0,149.0 L263.0,49.0 L263.61495844875344,47.42105263157896 L264.196675900277,45.84210526315789 L264.7451523545706,44.26315789473682 L265.26038781163436,42.68421052631581 L265.74238227146816,41.1052631578948 L266.191135734072,39.52631578947367 L266.606648199446,37.9473684210526 L266.98891966759004,36.36842105263159 L267.3379501385042,34.78947368421055 L267.65373961218836,33.21052631578948 L267.93628808864264,31.63157894736844 L268.18559556786704,30.05263157894737 L268.4016620498615,28.47368421052633 L268.584487534626,26.89473684210526 L268.73407202216066,25.31578947368422 L268.85041551246536,23.73684210526315 L268.9335180055402,22.15789473684211 L268.983379501385,20.57894736842107 L269.0,19.0 L280.5,13.0 L282.07894736842104,13.249307479224399 L283.6578947368421,13.47091412742381 L285.2368421052631,13.664819944598293 L286.8157894736842,13.83102493074793 L288.3947368421053,13.96952908587258 L289.97368421052636,14.0803324099723 L291.55263157894734,14.163434903047062 L293.13157894736844,14.218836565096979 L294.7105263157895,14.24653739612188 L296.2894736842105,14.246537396121909 L297.86842105263156,14.21883656509695 L299.4473684210526,14.163434903047118 L301.0263157894737,14.0803324099723 L302.60526315789474,13.96952908587258 L304.1842105263158,13.83102493074793 L305.7631578947368,13.664819944598321 L307.34210526315786,13.470914127423839 L308.92105263157896,13.24930747922437 L310.5,13.0 L328.0,23.0 L328.0,23.0 L328.0,24.57894736842107 L328.0,26.15789473684211 L327.99999999999994,27.736842105263122 L328.0,29.31578947368422 L328.00000000000006,30.89473684210529 L328.0,32.47368421052633 L328.0,34.05263157894734 L328.0,35.63157894736844 L328.0,37.21052631578948 L328.0,38.78947368421052 L328.0,40.36842105263159 L328.0,41.94736842105263 L328.0,43.5263157894737 L328.0,45.10526315789474 L328.0,46.68421052631581 L328.0,48.26315789473682 L328.0,49.84210526315789 L328.0,51.42105263157893 L328.0,53.0 L340.0,153.0 L251.0,149.0 Z" fill="rgb(255, 167, 51)" stroke="black" stroke-width="1" /><path d="M119.0,101.0 L149.0,41.0 L149.08310249307482,41.00000000000006 L149.33240997229916,41.0 L149.7479224376731,40.99999999999994 L150.32963988919667,41.0 L151.07756232686984,41.00000000000003 L151.99168975069253,41.0 L153.0720221606648,40.99999999999997 L154.3185595567867,41.0 L155.73130193905817,41.00000000000003 L157.31024930747924,41.0 L159.05540166204986,41.0 L160.9667590027701,41.0 L163.0443213296399,41.0 L165.28808864265926,41.0 L167.69806094182826,41.0 L170.27423822714678,41.0 L173.01662049861494,41.0 L175.92520775623268,41.0 L179.0,41.0 L179.0,41.0 L182.07479224376735,41.00000000000006 L184.983379501385,41.0 L187.72576177285313,40.99999999999994 L190.30193905817174,41.0 L192.71191135734077,41.00000000000003 L194.9556786703601,41.0 L197.03324099722988,40.99999999999997 L198.94459833795014,41.0 L200.68975069252082,41.00000000000003 L202.26869806094186,41.0 L203.68144044321332,41.0 L204.92797783933517,41.0 L206.00831024930747,41.0 L206.9224376731302,41.0 L207.67036011080333,41.0 L208.25207756232686,41.0 L208.66759002770084,41.0 L208.9168975069252,41.0 L209.0,41.0 L239.0,101.0 L119.0,101.0 Z" fill="rgb(255, 167, 51)" stroke="black" stroke-width="1" /><path d="M351.0,325.0 L368.5,265.0 L368.88227146814404,264.38504155124656 L369.3975069252077,263.803324099723 L370.04570637119116,263.2548476454293 L370.8268698060942,262.73961218836564 L371.7409972299169,262.2576177285319 L372.7880886426593,261.808864265928 L373.9681440443213,261.393351800554 L375.2811634349031,261.01108033240996 L376.7271468144045,260.66204986149586 L378.3060941828255,260.34626038781164 L380.0180055401662,260.06371191135736 L381.8628808864266,259.81440443213296 L383.84072022160666,259.5983379501385 L385.9515235457064,259.4155124653739 L388.1952908587258,259.26592797783934 L390.5720221606648,259.14958448753464 L393.08171745152356,259.0664819944599 L395.72437673130196,259.016620498615 L398.5,259.0 L398.5,259.0 L401.27562326869804,259.016620498615 L403.91828254847644,259.0664819944598 L406.42797783933514,259.1495844875346 L408.8047091412742,259.26592797783934 L411.0484764542937,259.41551246537404 L413.15927977839334,259.5983379501385 L415.13711911357336,259.81440443213296 L416.9819944598338,260.06371191135736 L418.69390581717454,260.34626038781164 L420.2728531855956,260.66204986149586 L421.7188365650969,261.01108033240996 L423.0318559556787,261.393351800554 L424.2119113573407,261.808864265928 L425.2590027700831,262.25761772853184 L426.1731301939058,262.73961218836564 L426.95429362880884,263.2548476454293 L427.6024930747923,263.803324099723 L428.11772853185596,264.38504155124656 L428.5,265.0 L446.0,325.0 L351.0,325.0 Z" fill="rgb(255, 167, 51)" stroke="black" stroke-width="1" /></svg>