<?xml version="1.0" encoding="utf-8" ?>
<svg baseProfile="tiny" height="100%" version="1.2" width="100%" xmlns="http://www.w3.org/2000/svg" xmlns:ev="http://www.w3.org/2001/xml-events" xmlns:xlink="http://www.w3.org/1999/xlink"><defs /><path d="M215.0,124.0 L140.0,132.0 L140.0,310.0 L172.0,335.0 L211.0,326.0 L227.0,182.0 L215.0,124.0 Z" fill="rgb(77, 161, 169)" stroke="black" stroke-width="1" /><path d="M221.05209681662723,155.5149440576098 L212.55209681662723,247.5149440576098 L211.11719376953582,248.77810195234662 L209.75985304931422,250.0412598470835 L208.48007465596243,251.30441774182034 L207.27785858948042,252.56757563655714 L206.15320484986822,253.830733531294 L205.10611343712586,255.09389142603086 L204.13658435125328,256.3570493207677 L203.2446175922505,257.62020721550454 L202.4302131601175,258.88336511024136 L201.69337105485437,260.14652300497823 L201.03409127646103,261.40968089971506 L200.45237382493747,262.6728387944519 L199.94821870028375,263.93599668918876 L199.5216259024998,265.1991545839256 L199.17259543158565,266.4623124786624 L198.90112728754136,267.7254703733993 L198.70722147036685,268.9886282681361 L198.59087798006212,270.251786162873 L198.55209681662723,271.5149440576098 L195.55209681662723,279.5149440576098 L193.97314944820613,279.016329099161 L192.39420207978515,278.5731158027622 L190.8152547113641,278.18530416841315 L189.236307342943,277.85289419611394 L187.65735997452194,277.57588588586464 L186.07841260610093,277.3542792376652 L184.49946523767989,277.1880742515156 L182.9205178692588,277.0772709274159 L181.34157050083775,277.02186926536604 L179.7626231324167,277.02186926536604 L178.18367576399567,277.0772709274159 L176.60472839557463,277.1880742515156 L175.02578102715353,277.3542792376652 L173.4468336587325,277.57588588586464 L171.86788629031142,277.85289419611394 L170.2889389218904,278.18530416841315 L168.70999155346934,278.5731158027621 L167.1310441850483,279.01632909916106 L165.55209681662723,279.5149440576098 L162.55209681662723,271.5149440576098 L162.55209681662723,271.5149440576098 L162.51331565319234,270.2517861628729 L162.39697216288764,268.98862826813615 L162.20306634571313,267.7254703733993 L161.93159820166878,266.4623124786624 L161.5825677307546,265.1991545839255 L161.15597493297074,263.93599668918876 L160.65181980831701,262.67283879445193 L160.07010235679346,261.40968089971506 L159.4108225784001,260.1465230049782 L158.67398047313694,258.88336511024136 L157.85957604100398,257.62020721550454 L156.9676092820012,256.3570493207677 L155.99808019612863,255.09389142603084 L154.95098878338624,253.83073353129402 L153.826335043774,252.56757563655717 L152.62411897729206,251.30441774182032 L151.34434058394027,250.04125984708347 L149.98699986371864,248.77810195234665 L148.55209681662723,247.5149440576098 L140.05209681662723,155.5149440576098 L221.05209681662723,155.5149440576098 Z" fill="rgb(255, 167, 51)" stroke="black" stroke-width="1" /><path d="M344.0,141.0 L340.0,310.0 L348.0,342.0 L406.0,312.0 L428.0,291.0 L443.0,191.0 L344.0,141.0 Z" fill="rgb(77, 161, 169)" stroke="black" stroke-width="1" /><path d="M343.37346403424,294.4596513597611 L351.87346403424,202.45965135976107 L353.3083670813314,201.19649346502425 L354.665707801553,199.93333557028737 L355.9454861949048,198.67017767555052 L357.1477022613868,197.40701978081373 L358.272356000999,196.14386188607688 L359.3194474137414,194.88070399134 L360.2889764996139,193.61754609660315 L361.1809432586167,192.35438820186633 L361.9953476907497,191.0912303071295 L362.73218979601285,189.82807241239266 L363.3914695744062,188.5649145176558 L363.97318702592975,187.301756622919 L364.47734215058347,186.0385987281821 L364.9039349483674,184.7754408334453 L365.25296541928157,183.51228293870844 L365.52443356332583,182.2491250439716 L365.71833938050037,180.98596714923477 L365.83468287080507,179.7228092544979 L365.87346403424,178.45965135976107 L368.87346403424,170.45965135976107 L370.4524114026611,171.75605025172783 L372.03135877108207,172.90840482236493 L373.6103061395031,173.91671507167237 L375.1892535079242,174.7809809996503 L376.7682008763453,175.50120260629848 L378.3471482447663,176.077379891617 L379.92609561318733,176.50951285560595 L381.5050429816084,176.7976014982652 L383.08399035002947,176.9416458195949 L384.6629377184505,176.94164581959487 L386.24188508687155,176.79760149826524 L387.8208324552926,176.50951285560595 L389.3997798237137,176.07737989161703 L390.9787271921347,175.50120260629845 L392.5576745605558,174.78098099965027 L394.1366219289768,173.91671507167243 L395.7155692973979,172.90840482236496 L397.29451666581895,171.75605025172783 L398.87346403424,170.45965135976107 L401.87346403424,178.45965135976107 L401.87346403424,178.45965135976107 L401.9122451976749,179.72280925449792 L402.02858868797955,180.98596714923474 L402.2224945051541,182.24912504397156 L402.49396264919847,183.51228293870844 L402.8429931201126,184.77544083344532 L403.2695859178965,186.0385987281821 L403.7737410425502,187.30175662291893 L404.3554584940738,188.5649145176558 L405.0147382724671,189.8280724123927 L405.7515803777303,191.0912303071295 L406.56598480986327,192.35438820186633 L407.457951568866,193.61754609660315 L408.4274806547386,194.88070399134003 L409.47457206748095,196.14386188607685 L410.5992258070932,197.4070197808137 L411.8014418735752,198.67017767555055 L413.08122026692695,199.9333355702874 L414.43856098714855,201.19649346502422 L415.87346403424,202.45965135976107 L424.37346403424,294.4596513597611 L343.37346403424,294.4596513597611 Z" fill="rgb(255, 167, 51)" stroke="black" stroke-width="1" /><path d="M553.0,229.0 L540.0,310.0 L544.0,336.0 L551.0,344.0 L605.0,318.0 L614.0,308.0 L612.0,248.0 L578.0,229.0 L553.0,229.0 Z" fill="rgb(77, 161, 169)" stroke="black" stroke-width="1" /><path d="M540.5238812891259,307.4356400326176 L552.0238812891259,267.4356400326176 L552.788424225414,266.0007369855262 L553.608368823752,264.64339626530455 L554.4837150841398,263.3636178719527 L555.4144630065774,262.16140180547075 L556.400612591065,261.0367480658586 L557.4421638376024,259.9896566531162 L558.5391167461896,259.02012756724355 L559.6914713168268,258.12816080824086 L560.8992275495137,257.3137563761079 L562.1623854442506,256.5769142708447 L563.4809450010373,255.91763449245138 L564.8549062198738,255.33591704092782 L566.2842691007603,254.8317619162741 L567.7690336436965,254.40516911849016 L569.3091998486827,254.05613864757603 L570.9047677157187,253.78467050353171 L572.5557372448046,253.5907646863572 L574.2621084359403,253.47442119605248 L576.0238812891259,253.43564003261758 L576.0238812891259,253.43564003261758 L577.7856541423116,253.47442119605253 L579.4920253334473,253.5907646863572 L581.1429948625331,253.7846705035317 L582.7385627295691,254.056138647576 L584.2787289345554,254.4051691184902 L585.7634934774916,254.83176191627408 L587.192856358378,255.33591704092782 L588.5668175772146,255.91763449245136 L589.8853771340014,256.5769142708448 L591.1485350287381,257.3137563761079 L592.3562912614251,258.12816080824086 L593.5086458320623,259.02012756724366 L594.6055987406495,259.9896566531162 L595.6471499871868,261.03674806585855 L596.6332995716743,262.16140180547075 L597.5640474941121,263.3636178719528 L598.4393937544999,264.64339626530455 L599.2593383528379,266.00073698552615 L600.0238812891259,267.4356400326176 L611.5238812891259,307.4356400326176 L540.5238812891259,307.4356400326176 Z" fill="rgb(255, 167, 51)" stroke="black" stroke-width="1" /><path d="M751.0,200.0 L740.0,310.0 L767.0,336.0 L814.0,340.0 L820.0,297.0 L768.0,223.0 L751.0,200.0 Z" fill="rgb(77, 161, 169)" stroke="black" stroke-width="1" /><path d="M740.5092711885816,309.1714031990882 L752.0092711885816,269.1714031990882 L752.7738141248697,267.73650015199684 L753.5937587232077,266.3791594317752 L754.4691049835955,265.09938103842336 L755.3998529060331,263.8971649719414 L756.3860024905207,262.77251123232924 L757.427553737058,261.7254198195868 L758.5245066456453,260.7558907337142 L759.6768612162824,259.8639239747115 L760.8846174489694,259.04951954257854 L762.1477753437063,258.31267743731536 L763.4663349004929,257.653397658922 L764.8402961193294,257.07168020739846 L766.2696590002159,256.56752508274474 L767.7544235431521,256.1409322849608 L769.2945897481384,255.79190181404667 L770.8901576151743,255.52043367000235 L772.5411271442603,255.32652785282784 L774.2474983353959,255.2101843625231 L776.0092711885816,255.17140319908822 L776.0092711885816,255.17140319908822 L777.7710440417673,255.21018436252317 L779.4774152329029,255.32652785282784 L781.1283847619887,255.52043367000232 L782.7239526290248,255.79190181404664 L784.264118834011,256.14093228496085 L785.7488833769472,256.56752508274474 L787.1782462578336,257.07168020739846 L788.5522074766702,257.653397658922 L789.870767033457,258.3126774373154 L791.1339249281938,259.04951954257854 L792.3416811608807,259.8639239747115 L793.4940357315179,260.7558907337143 L794.5909886401051,261.7254198195868 L795.6325398866425,262.7725112323292 L796.61868947113,263.8971649719414 L797.5494373935677,265.0993810384234 L798.4247836539555,266.3791594317752 L799.2447282522935,267.7365001519968 L800.0092711885816,269.1714031990882 L811.5092711885816,309.1714031990882 L740.5092711885816,309.1714031990882 Z" fill="rgb(255, 167, 51)" stroke="black" stroke-width="1" /></svg>