<?xml version="1.0" encoding="utf-8" ?>
<svg baseProfile="tiny" height="100%" version="1.2" width="100%" xmlns="http://www.w3.org/2000/svg" xmlns:ev="http://www.w3.org/2001/xml-events" xmlns:xlink="http://www.w3.org/1999/xlink"><defs /><path d="M143.0,51.0 L112.0,91.0 L129.0,195.0 L351.0,133.0 L367.0,53.0 L143.0,51.0 Z" fill="rgb(77, 161, 169)" stroke="black" stroke-width="1" /><path d="M225.0,29.0 L205.0,449.0 L222.0,436.0 L290.0,245.0 L261.0,90.0 L225.0,29.0 Z" fill="rgb(77, 161, 169)" stroke="black" stroke-width="1" /><path d="M477.0,206.0 L382.0,207.0 L369.0,248.0 L391.0,332.0 L416.0,335.0 L463.0,307.0 L477.0,206.0 Z" fill="rgb(77, 161, 169)" stroke="black" stroke-width="1" /><path d="M558.0,287.0 L479.0,369.0 L458.0,569.0 L580.0,529.0 L558.0,287.0 Z" fill="rgb(77, 161, 169)" stroke="black" stroke-width="1" /><path d="M304.0,116.0 L311.5,76.0 L312.83240997229916,74.94736842105266 L314.0927977839335,73.89473684210526 L315.281163434903,72.84210526315786 L316.3975069252078,71.78947368421052 L317.4418282548477,70.73684210526321 L318.4141274238227,69.68421052631578 L319.31440443213296,68.63157894736838 L320.1426592797784,67.57894736842104 L320.89889196675904,66.5263157894737 L321.58310249307476,65.4736842105263 L322.19529085872574,64.42105263157896 L322.7354570637119,63.36842105263156 L323.20360110803324,62.31578947368422 L323.59972299168976,61.26315789473685 L323.9238227146815,60.21052631578948 L324.1759002770083,59.15789473684208 L324.3559556786704,58.10526315789474 L324.4639889196676,57.05263157894737 L324.5,56.0 L324.5,48.0 L325.97368421052636,48.89750692520778 L327.4473684210526,49.69529085872577 L328.92105263157896,50.39335180055397 L330.39473684210526,50.9916897506925 L331.8684210526316,51.4903047091413 L333.3421052631579,51.88919667590028 L334.81578947368416,52.1883656509695 L336.2894736842105,52.38781163434902 L337.7631578947369,52.48753462603881 L339.2368421052631,52.48753462603878 L340.7105263157895,52.38781163434902 L342.1842105263158,52.18836565096953 L343.6578947368421,51.88919667590028 L345.13157894736844,51.49030470914127 L346.60526315789474,50.9916897506925 L348.07894736842104,50.393351800554 L349.5526315789474,49.69529085872574 L351.02631578947364,48.89750692520775 L352.5,48.0 L362.5,58.0 L362.5,58.0 L362.50831024930744,59.15789473684211 L362.5332409972299,60.31578947368419 L362.5747922437673,61.4736842105263 L362.63296398891964,62.63157894736841 L362.707756232687,63.78947368421058 L362.7991689750692,64.94736842105263 L362.9072022160664,66.10526315789474 L363.0318559556787,67.26315789473688 L363.1731301939058,68.42105263157896 L363.3310249307479,69.57894736842104 L363.505540166205,70.73684210526315 L363.696675900277,71.89473684210526 L363.90443213296396,73.0526315789474 L364.1288088642659,74.21052631578948 L364.3698060941828,75.36842105263156 L364.6274238227147,76.5263157894737 L364.9016620498615,77.68421052631578 L365.1925207756233,78.84210526315792 L365.5,80.0 L373.0,179.0 L304.0,116.0 Z" fill="rgb(255, 167, 51)" stroke="black" stroke-width="1" /><path d="M163.0,545.0 L170.5,446.0 L170.80747922437675,444.8421052631579 L171.0983379501385,443.6842105263158 L171.3725761772853,442.52631578947364 L171.63019390581718,441.36842105263156 L171.8711911357341,440.21052631578954 L172.095567867036,439.0526315789474 L172.303324099723,437.89473684210526 L172.49445983379502,436.7368421052632 L172.6689750692521,435.57894736842104 L172.82686980609418,434.42105263157896 L172.96814404432132,433.2631578947369 L173.09279778393352,432.10526315789474 L173.20083102493075,430.9473684210526 L173.292243767313,429.7894736842105 L173.36703601108033,428.63157894736844 L173.42520775623268,427.4736842105263 L173.46675900277006,426.3157894736842 L173.4916897506925,425.1578947368421 L173.5,424.0 L183.5,414.0 L184.97368421052633,414.4487534626039 L186.44736842105263,414.84764542936284 L187.92105263157893,415.196675900277 L189.39473684210526,415.4958448753463 L190.86842105263162,415.7451523545707 L192.3421052631579,415.94459833795014 L193.81578947368416,416.0941828254847 L195.28947368421052,416.1939058171745 L196.76315789473685,416.2437673130194 L198.23684210526315,416.24376731301936 L199.71052631578948,416.19390581717454 L201.18421052631578,416.0941828254848 L202.6578947368421,415.94459833795014 L204.1315789473684,415.7451523545706 L205.60526315789474,415.4958448753463 L207.07894736842104,415.196675900277 L208.55263157894737,414.8476454293629 L210.02631578947367,414.44875346260386 L211.5,414.0 L211.5,422.0 L211.5,422.0 L211.5360110803324,423.0526315789474 L211.64404432132963,424.10526315789474 L211.8240997229917,425.1578947368421 L212.07617728531858,426.2105263157895 L212.40027700831027,427.2631578947369 L212.79639889196676,428.3157894736842 L213.26454293628808,429.36842105263156 L213.80470914127423,430.42105263157896 L214.41689750692524,431.47368421052636 L215.10110803324102,432.52631578947364 L215.8573407202216,433.57894736842104 L216.68559556786704,434.63157894736844 L217.58587257617728,435.6842105263158 L218.55817174515235,436.7368421052631 L219.60249307479225,437.7894736842105 L220.71883656509695,438.8421052631579 L221.90720221606648,439.89473684210526 L223.1675900277008,440.9473684210526 L224.5,442.0 L232.0,482.0 L163.0,545.0 Z" fill="rgb(255, 167, 51)" stroke="black" stroke-width="1" /><path d="M272.0,549.0 L275.5,510.0 L276.20360110803324,508.6675900277009 L276.9459833795014,507.4072022160665 L277.7271468144044,506.2188365650969 L278.54709141274236,505.1024930747922 L279.4058171745153,504.0581717451523 L280.303324099723,503.0858725761773 L281.23961218836564,502.18559556786704 L282.2146814404432,501.3573407202216 L283.2285318559557,500.601108033241 L284.2811634349031,499.91689750692524 L285.3725761772853,499.3047091412742 L286.5027700831025,498.7645429362881 L287.67174515235456,498.29639889196676 L288.8795013850415,497.90027700831024 L290.12603878116346,497.5761772853186 L291.4113573407202,497.3240997229917 L292.7354570637119,497.1440443213296 L294.0983379501385,497.0360110803324 L295.5,497.0 L295.5,497.0 L296.9016620498615,497.0360110803324 L298.2645429362881,497.1440443213296 L299.58864265927974,497.32409972299166 L300.8739612188366,497.5761772853186 L302.1204986149585,497.9002770083103 L303.32825484764544,498.29639889196676 L304.4972299168975,498.7645429362881 L305.6274238227147,499.30470914127426 L306.718836565097,499.91689750692524 L307.7714681440443,500.60110803324096 L308.7853185595568,501.3573407202216 L309.76038781163436,502.18559556786704 L310.696675900277,503.0858725761773 L311.5941828254847,504.0581717451523 L312.45290858725764,505.1024930747922 L313.2728531855955,506.2188365650969 L314.0540166204986,507.4072022160665 L314.79639889196676,508.66759002770084 L315.5,510.0 L319.0,549.0 L272.0,549.0 Z" fill="rgb(255, 167, 51)" stroke="black" stroke-width="1" /><path d="M21.0,555.0 L29.0,534.0 L29.21052631578948,533.6925207756233 L29.5263157894737,533.4016620498614 L29.9473684210526,533.1274238227146 L30.47368421052633,532.8698060941829 L31.10526315789477,532.6288088642659 L31.84210526315789,532.4044321329641 L32.68421052631578,532.196675900277 L33.63157894736838,532.005540166205 L34.68421052631581,531.831024930748 L35.84210526315789,531.6731301939058 L37.10526315789474,531.5318559556787 L38.4736842105263,531.4072022160665 L39.94736842105266,531.2991689750693 L41.52631578947367,531.207756232687 L43.21052631578948,531.1329639889196 L45.0,531.0747922437673 L46.89473684210526,531.0332409972299 L48.89473684210526,531.0083102493074 L51.0,531.0 L51.0,531.0 L53.10526315789477,531.0083102493074 L55.10526315789474,531.0332409972299 L56.99999999999994,531.0747922437672 L58.78947368421052,531.1329639889198 L60.47368421052636,531.207756232687 L62.05263157894737,531.2991689750693 L63.52631578947364,531.4072022160665 L64.89473684210529,531.5318559556787 L66.15789473684214,531.6731301939059 L67.31578947368422,531.831024930748 L68.36842105263162,532.005540166205 L69.31578947368422,532.196675900277 L70.15789473684211,532.404432132964 L70.89473684210526,532.6288088642659 L71.5263157894737,532.8698060941829 L72.05263157894734,533.1274238227147 L72.4736842105263,533.4016620498614 L72.78947368421052,533.6925207756233 L73.0,534.0 L81.0,555.0 L21.0,555.0 Z" fill="rgb(255, 167, 51)" stroke="black" stroke-width="1" /></svg>