<?xml version="1.0" encoding="utf-8" ?>
<svg baseProfile="tiny" height="100%" version="1.2" width="100%" xmlns="http://www.w3.org/2000/svg" xmlns:ev="http://www.w3.org/2001/xml-events" xmlns:xlink="http://www.w3.org/1999/xlink"><defs /><path d="M274.0,113.0 L205.0,188.0 L140.0,310.0 L219.0,340.0 L294.0,285.0 L278.0,133.0 L274.0,113.0 Z" fill="rgb(77, 161, 169)" stroke="black" stroke-width="1" /><path d="M150.0,300.0 L168.0,262.0 L168.9224376731302,260.8947368421053 L169.79501385041553,259.7894736842105 L170.61772853185593,258.6842105263157 L171.39058171745154,257.57894736842104 L172.11357340720224,256.47368421052636 L172.78670360110803,255.3684210526316 L173.40997229916897,254.2631578947368 L173.98337950138503,253.15789473684208 L174.50692520775624,252.0526315789474 L174.98060941828254,250.94736842105263 L175.404432132964,249.8421052631579 L175.77839335180056,248.73684210526318 L176.10249307479225,247.63157894736844 L176.37673130193906,246.5263157894737 L176.60110803324102,245.42105263157896 L176.77562326869804,244.3157894736842 L176.90027700831027,243.21052631578948 L176.97506925207756,242.10526315789474 L177.0,241.0 L185.0,232.0 L186.57894736842107,232.4986149584488 L188.1578947368421,232.94182825484765 L189.7368421052631,233.32963988919664 L191.31578947368422,233.66204986149583 L192.89473684210532,233.9390581717452 L194.4736842105263,234.1606648199446 L196.05263157894737,234.32686980609415 L197.63157894736844,234.4376731301939 L199.21052631578948,234.49307479224382 L200.78947368421052,234.49307479224376 L202.36842105263156,234.4376731301939 L203.94736842105266,234.32686980609418 L205.5263157894737,234.1606648199446 L207.10526315789474,233.93905817174516 L208.68421052631578,233.66204986149586 L210.26315789473682,233.32963988919664 L211.8421052631579,232.94182825484762 L213.42105263157896,232.49861495844874 L215.0,232.0 L225.0,233.0 L225.0,233.0 L225.01939058171746,234.36842105263162 L225.0775623268698,235.73684210526315 L225.17451523545702,237.1052631578947 L225.3102493074792,238.47368421052633 L225.48476454293632,239.84210526315792 L225.69806094182826,241.21052631578948 L225.9501385041551,242.57894736842104 L226.2409972299169,243.94736842105263 L226.5706371191136,245.31578947368425 L226.93905817174516,246.68421052631578 L227.34626038781164,248.05263157894737 L227.792243767313,249.42105263157896 L228.2770083102493,250.78947368421052 L228.80055401662048,252.15789473684208 L229.36288088642658,253.5263157894737 L229.96398891966757,254.89473684210526 L230.60387811634348,256.2631578947368 L231.28254847645428,257.63157894736844 L232.0,259.0 L250.0,317.0 L150.0,300.0 Z" fill="rgb(255, 167, 51)" stroke="black" stroke-width="1" /><path d="M471.0,130.0 L401.0,164.0 L357.0,211.0 L340.0,310.0 L356.0,401.0 L494.0,449.0 L485.0,262.0 L471.0,130.0 Z" fill="rgb(77, 161, 169)" stroke="black" stroke-width="1" /><path d="M350.0,300.0 L368.0,242.0 L368.7174515235457,240.63157894736844 L369.3961218836565,239.26315789473685 L370.0360110803324,237.89473684210523 L370.6371191135734,236.5263157894737 L371.1994459833795,235.15789473684214 L371.7229916897507,233.78947368421055 L372.20775623268696,232.42105263157893 L372.65373961218836,231.05263157894737 L373.06094182825484,229.6842105263158 L373.4293628808864,228.31578947368422 L373.7590027700831,226.94736842105263 L374.0498614958449,225.57894736842104 L374.30193905817174,224.21052631578948 L374.5152354570637,222.84210526315786 L374.68975069252076,221.47368421052636 L374.8254847645429,220.10526315789474 L374.92243767313016,218.73684210526315 L374.98060941828254,217.36842105263156 L375.0,216.0 L385.0,215.0 L386.57894736842104,215.24930747922437 L388.1578947368421,215.47091412742384 L389.7368421052631,215.6648199445983 L391.3157894736842,215.8310249307479 L392.8947368421053,215.9695290858726 L394.4736842105263,216.0803324099723 L396.0526315789474,216.1634349030471 L397.63157894736844,216.21883656509695 L399.2105263157895,216.2465373961219 L400.7894736842105,216.24653739612185 L402.36842105263156,216.21883656509698 L403.94736842105266,216.1634349030471 L405.5263157894737,216.0803324099723 L407.10526315789474,215.96952908587258 L408.6842105263158,215.8310249307479 L410.2631578947368,215.66481994459832 L411.8421052631579,215.47091412742384 L413.42105263157896,215.24930747922437 L415.0,215.0 L423.0,224.0 L423.0,224.0 L423.02493074792244,225.10526315789474 L423.09972299168976,226.21052631578945 L423.2243767313019,227.31578947368416 L423.398891966759,228.42105263157896 L423.623268698061,229.52631578947373 L423.8975069252078,230.63157894736844 L424.22160664819944,231.73684210526315 L424.595567867036,232.8421052631579 L425.0193905817175,233.9473684210527 L425.49307479224376,235.05263157894737 L426.01662049861494,236.15789473684208 L426.590027700831,237.26315789473682 L427.213296398892,238.36842105263156 L427.88642659279776,239.4736842105263 L428.60941828254846,240.57894736842104 L429.38227146814404,241.68421052631578 L430.20498614958444,242.78947368421052 L431.0775623268698,243.89473684210526 L432.0,245.0 L450.0,283.0 L350.0,300.0 Z" fill="rgb(255, 167, 51)" stroke="black" stroke-width="1" /><path d="M607.0,209.0 L559.0,230.0 L540.0,310.0 L541.0,319.0 L564.0,337.0 L608.0,324.0 L634.0,257.0 L607.0,209.0 Z" fill="rgb(77, 161, 169)" stroke="black" stroke-width="1" /><path d="M550.0,300.0 L562.5,250.0 L563.0069252077562,249.07756232686984 L563.5803324099722,248.20498614958447 L564.2202216066482,247.382271468144 L564.926592797784,246.6094182825485 L565.6994459833795,245.88642659279782 L566.5387811634349,245.21329639889197 L567.4445983379501,244.59002770083097 L568.4168975069252,244.01662049861494 L569.4556786703602,243.49307479224382 L570.5609418282548,243.01939058171746 L571.7326869806094,242.595567867036 L572.9709141274238,242.22160664819944 L574.275623268698,241.89750692520778 L575.6468144044321,241.62326869806094 L577.0844875346261,241.398891966759 L578.5886426592798,241.22437673130193 L580.1592797783933,241.09972299168976 L581.7963988919668,241.02493074792244 L583.5,241.0 L583.5,241.0 L585.2036011080332,241.02493074792247 L586.8407202216067,241.09972299168976 L588.4113573407202,241.2243767313019 L589.9155124653739,241.398891966759 L591.3531855955679,241.623268698061 L592.7243767313018,241.89750692520772 L594.0290858725762,242.2216066481994 L595.2673130193906,242.59556786703604 L596.4390581717452,243.01939058171746 L597.5443213296398,243.49307479224376 L598.5831024930749,244.01662049861494 L599.5554016620499,244.590027700831 L600.4612188365651,245.21329639889197 L601.3005540166205,245.88642659279776 L602.0734072022161,246.6094182825485 L602.7797783933518,247.38227146814404 L603.4196675900278,248.20498614958447 L603.9930747922438,249.0775623268698 L604.5,250.0 L617.0,300.0 L550.0,300.0 Z" fill="rgb(255, 167, 51)" stroke="black" stroke-width="1" /><path d="M756.0,203.0 L749.0,213.0 L740.0,310.0 L747.0,315.0 L770.0,327.0 L849.0,289.0 L831.0,218.0 L756.0,203.0 Z" fill="rgb(77, 161, 169)" stroke="black" stroke-width="1" /><path d="M750.0,300.0 L762.0,240.0 L762.421052631579,239.28254847645434 L762.9473684210526,238.6038781163435 L763.578947368421,237.96398891966754 L764.3157894736842,237.36288088642658 L765.1578947368421,236.80055401662054 L766.1052631578948,236.27700831024933 L767.1578947368421,235.792243767313 L768.3157894736842,235.34626038781164 L769.578947368421,234.9390581717452 L770.9473684210526,234.57063711911357 L772.421052631579,234.2409972299169 L774.0,233.95013850415512 L775.6842105263158,233.69806094182826 L777.4736842105262,233.48476454293626 L779.3684210526316,233.31024930747924 L781.3684210526316,233.17451523545708 L783.4736842105262,233.0775623268698 L785.6842105263158,233.01939058171743 L788.0,233.0 L788.0,233.0 L790.3157894736843,233.0193905817175 L792.5263157894738,233.0775623268698 L794.6315789473683,233.17451523545702 L796.6315789473684,233.31024930747924 L798.5263157894738,233.48476454293635 L800.3157894736842,233.69806094182826 L802.0,233.9501385041551 L803.578947368421,234.2409972299169 L805.0526315789474,234.5706371191136 L806.421052631579,234.93905817174516 L807.6842105263158,235.34626038781164 L808.8421052631579,235.79224376731304 L809.8947368421052,236.2770083102493 L810.8421052631579,236.80055401662048 L811.6842105263158,237.36288088642658 L812.421052631579,237.9639889196676 L813.0526315789473,238.60387811634348 L813.578947368421,239.28254847645428 L814.0,240.0 L826.0,300.0 L750.0,300.0 Z" fill="rgb(255, 167, 51)" stroke="black" stroke-width="1" /></svg>