<?xml version="1.0" encoding="utf-8" ?>
<svg baseProfile="tiny" height="100%" version="1.2" width="100%" xmlns="http://www.w3.org/2000/svg" xmlns:ev="http://www.w3.org/2001/xml-events" xmlns:xlink="http://www.w3.org/1999/xlink"><defs /><path d="M274.0,113.0 L205.0,188.0 L140.0,310.0 L219.0,340.0 L294.0,285.0 L278.0,133.0 L274.0,113.0 Z" fill="rgb(77, 161, 169)" stroke="black" stroke-width="1" /><path d="M150.0,300.0 L171.5,262.0 L172.21745152354575,260.7368421052632 L172.89612188365652,259.47368421052636 L173.53601108033237,258.2105263157894 L174.13711911357342,256.9473684210526 L174.69944598337955,255.68421052631584 L175.22299168975073,254.42105263157896 L175.70775623268696,253.15789473684205 L176.1537396121884,251.8947368421053 L176.56094182825487,250.63157894736844 L176.92936288088643,249.3684210526316 L177.2590027700831,248.10526315789474 L177.54986149584488,246.84210526315792 L177.80193905817174,245.57894736842104 L178.0152354570637,244.3157894736842 L178.18975069252076,243.05263157894737 L178.32548476454292,241.78947368421052 L178.4224376731302,240.5263157894737 L178.48060941828254,239.26315789473682 L178.5,238.0 L185.0,228.0 L186.57894736842107,228.49861495844877 L188.1578947368421,228.94182825484765 L189.7368421052631,229.3296398891966 L191.31578947368422,229.66204986149586 L192.89473684210532,229.9390581717452 L194.4736842105263,230.1606648199446 L196.05263157894737,230.32686980609415 L197.63157894736844,230.43767313019387 L199.21052631578948,230.49307479224376 L200.78947368421052,230.49307479224376 L202.36842105263156,230.4376731301939 L203.94736842105266,230.32686980609418 L205.5263157894737,230.1606648199446 L207.10526315789474,229.93905817174516 L208.68421052631578,229.66204986149586 L210.26315789473682,229.32963988919664 L211.8421052631579,228.94182825484765 L213.42105263157896,228.49861495844874 L215.0,228.0 L221.5,238.0 L221.5,238.0 L221.51939058171746,239.26315789473685 L221.57756232686984,240.52631578947367 L221.67451523545702,241.78947368421052 L221.81024930747924,243.0526315789474 L221.98476454293635,244.31578947368425 L222.19806094182826,245.57894736842107 L222.4501385041551,246.84210526315786 L222.7409972299169,248.10526315789474 L223.0706371191136,249.36842105263162 L223.43905817174516,250.6315789473684 L223.84626038781164,251.89473684210526 L224.292243767313,253.15789473684208 L224.7770083102493,254.42105263157896 L225.30055401662048,255.68421052631578 L225.86288088642658,256.9473684210526 L226.4639889196676,258.2105263157895 L227.10387811634348,259.4736842105263 L227.78254847645428,260.7368421052631 L228.5,262.0 L250.0,300.0 L150.0,300.0 Z" fill="rgb(255, 167, 51)" stroke="black" stroke-width="1" /><path d="M471.0,130.0 L401.0,164.0 L357.0,211.0 L340.0,310.0 L356.0,401.0 L494.0,449.0 L485.0,262.0 L471.0,130.0 Z" fill="rgb(77, 161, 169)" stroke="black" stroke-width="1" /><path d="M350.0,300.0 L371.5,262.0 L372.2174515235457,260.7368421052632 L372.8961218836565,259.47368421052636 L373.5360110803324,258.2105263157894 L374.1371191135734,256.9473684210526 L374.6994459833795,255.68421052631584 L375.22299168975076,254.42105263157896 L375.70775623268696,253.15789473684205 L376.15373961218836,251.8947368421053 L376.56094182825484,250.63157894736844 L376.9293628808864,249.3684210526316 L377.2590027700831,248.10526315789474 L377.5498614958449,246.84210526315792 L377.80193905817174,245.57894736842104 L378.0152354570637,244.3157894736842 L378.18975069252076,243.05263157894737 L378.3254847645429,241.78947368421052 L378.42243767313016,240.5263157894737 L378.48060941828254,239.26315789473682 L378.5,238.0 L385.0,228.0 L386.57894736842104,228.09972299168976 L388.1578947368421,228.18836565096953 L389.7368421052631,228.26592797783928 L391.3157894736842,228.33240997229916 L392.8947368421053,228.38781163434908 L394.4736842105263,228.43213296398892 L396.0526315789474,228.46537396121883 L397.63157894736844,228.48753462603875 L399.2105263157895,228.4986149584488 L400.7894736842105,228.49861495844874 L402.36842105263156,228.48753462603878 L403.94736842105266,228.46537396121883 L405.5263157894737,228.43213296398892 L407.10526315789474,228.38781163434902 L408.6842105263158,228.33240997229916 L410.2631578947368,228.2659279778393 L411.8421052631579,228.18836565096953 L413.42105263157896,228.09972299168973 L415.0,228.0 L421.5,238.0 L421.5,238.0 L421.51939058171746,239.26315789473685 L421.57756232686984,240.52631578947367 L421.674515235457,241.78947368421052 L421.81024930747924,243.0526315789474 L421.9847645429363,244.31578947368425 L422.19806094182826,245.57894736842107 L422.4501385041551,246.84210526315786 L422.7409972299169,248.10526315789474 L423.0706371191136,249.36842105263162 L423.43905817174516,250.6315789473684 L423.84626038781164,251.89473684210526 L424.29224376731304,253.15789473684208 L424.7770083102493,254.42105263157896 L425.3005540166205,255.68421052631578 L425.8628808864266,256.9473684210526 L426.4639889196676,258.2105263157895 L427.1038781163435,259.4736842105263 L427.7825484764543,260.7368421052631 L428.5,262.0 L450.0,300.0 L350.0,300.0 Z" fill="rgb(255, 167, 51)" stroke="black" stroke-width="1" /><path d="M607.0,209.0 L559.0,230.0 L540.0,310.0 L541.0,319.0 L564.0,337.0 L608.0,324.0 L634.0,257.0 L607.0,209.0 Z" fill="rgb(77, 161, 169)" stroke="black" stroke-width="1" /><path d="M550.0,300.0 L559.5,247.0 L559.9155124653739,246.28254847645434 L560.4252077562327,245.60387811634348 L561.0290858725762,244.96398891966754 L561.7271468144045,244.36288088642658 L562.5193905817175,243.80055401662054 L563.4058171745153,243.2770083102493 L564.3864265927978,242.79224376731298 L565.4612188365651,242.34626038781164 L566.6301939058172,241.93905817174516 L567.893351800554,241.5706371191136 L569.2506925207756,241.2409972299169 L570.7022160664819,240.95013850415512 L572.2479224376732,240.69806094182826 L573.887811634349,240.4847645429363 L575.6218836565097,240.31024930747924 L577.4501385041551,240.17451523545705 L579.3725761772853,240.0775623268698 L581.3891966759003,240.01939058171746 L583.5,240.0 L583.5,240.0 L585.6108033240997,240.0193905817175 L587.6274238227147,240.0775623268698 L589.5498614958449,240.17451523545702 L591.3781163434903,240.3102493074792 L593.112188365651,240.48476454293632 L594.7520775623268,240.69806094182823 L596.297783933518,240.9501385041551 L597.7493074792244,241.2409972299169 L599.106648199446,241.5706371191136 L600.3698060941829,241.93905817174516 L601.5387811634349,242.34626038781164 L602.6135734072022,242.792243767313 L603.5941828254847,243.2770083102493 L604.4806094182825,243.80055401662048 L605.2728531855955,244.36288088642658 L605.9709141274238,244.9639889196676 L606.5747922437673,245.60387811634348 L607.0844875346261,246.28254847645428 L607.5,247.0 L617.0,300.0 L550.0,300.0 Z" fill="rgb(255, 167, 51)" stroke="black" stroke-width="1" /><path d="M756.0,203.0 L749.0,213.0 L740.0,310.0 L747.0,315.0 L770.0,327.0 L849.0,289.0 L831.0,218.0 L756.0,203.0 Z" fill="rgb(77, 161, 169)" stroke="black" stroke-width="1" /><path d="M750.0,300.0 L759.5,247.0 L759.9155124653739,246.28254847645434 L760.4252077562327,245.60387811634348 L761.0290858725762,244.96398891966754 L761.7271468144045,244.36288088642658 L762.5193905817175,243.80055401662054 L763.4058171745153,243.2770083102493 L764.3864265927978,242.79224376731298 L765.4612188365651,242.34626038781164 L766.6301939058172,241.93905817174516 L767.893351800554,241.5706371191136 L769.2506925207756,241.2409972299169 L770.7022160664819,240.95013850415512 L772.2479224376732,240.69806094182826 L773.887811634349,240.4847645429363 L775.6218836565097,240.31024930747924 L777.4501385041551,240.17451523545705 L779.3725761772853,240.0775623268698 L781.3891966759003,240.01939058171746 L783.5,240.0 L783.5,240.0 L785.6108033240997,240.0193905817175 L787.6274238227147,240.0775623268698 L789.5498614958449,240.17451523545702 L791.3781163434903,240.3102493074792 L793.112188365651,240.48476454293632 L794.7520775623268,240.69806094182823 L796.297783933518,240.9501385041551 L797.7493074792244,241.2409972299169 L799.106648199446,241.5706371191136 L800.3698060941829,241.93905817174516 L801.5387811634349,242.34626038781164 L802.6135734072022,242.792243767313 L803.5941828254847,243.2770083102493 L804.4806094182825,243.80055401662048 L805.2728531855955,244.36288088642658 L805.9709141274238,244.9639889196676 L806.5747922437673,245.60387811634348 L807.0844875346261,246.28254847645428 L807.5,247.0 L817.0,300.0 L750.0,300.0 Z" fill="rgb(255, 167, 51)" stroke="black" stroke-width="1" /></svg>