<?xml version="1.0" encoding="utf-8" ?>
<svg baseProfile="tiny" height="100%" version="1.2" width="100%" xmlns="http://www.w3.org/2000/svg" xmlns:ev="http://www.w3.org/2001/xml-events" xmlns:xlink="http://www.w3.org/1999/xlink"><defs /><path d="M 5.0,5.0 L 400.0,5.0 L 400.0,200.0 L 5.0,200.0 L 5.0,5.0 Z" fill="rgb(77, 161, 169)" stroke="black" stroke-width="1" /><path d="M 319.0,111.0 L 319.0,190.0 L 257.0,190.0 L 257.0,111.0 L 319.0,111.0 Z" fill="white" stroke="black" stroke-width="1" /><path d="M 398.0,41.0 L 398.0,88.0 L 355.0,88.0 L 355.0,41.0 L 398.0,41.0 Z" fill="white" stroke="black" stroke-width="1" /><path d="M 286.0,24.0 L 286.0,70.0 L 249.0,70.0 L 249.0,24.0 L 286.0,24.0 Z" fill="white" stroke="black" stroke-width="1" /><path d="M 136.0,54.0 L 136.0,111.0 L 99.0,111.0 L 99.0,54.0 L 136.0,54.0 Z" fill="white" stroke="black" stroke-width="1" /><path d="M 5.0,195.0 L 22.5,95.0 L 22.50000000000003,93.42105263157896 L 22.5,91.84210526315789 L 22.49999999999997,90.26315789473682 L 22.50000000000003,88.68421052631581 L 22.50000000000003,87.1052631578948 L 22.5,85.52631578947367 L 22.5,83.9473684210526 L 22.50000000000003,82.36842105263159 L 22.50000000000003,80.78947368421055 L 22.5,79.21052631578948 L 22.5,77.63157894736844 L 22.5,76.05263157894737 L 22.5,74.47368421052633 L 22.5,72.89473684210526 L 22.5,71.31578947368422 L 22.5,69.73684210526315 L 22.5,68.15789473684211 L 22.5,66.57894736842107 L 22.5,65.0 L 40.0,56.0 L 41.57894736842107,56.49861495844877 L 43.15789473684211,56.94182825484765 L 44.736842105263094,57.32963988919664 L 46.31578947368422,57.66204986149586 L 47.89473684210532,57.93905817174516 L 49.4736842105263,58.1606648199446 L 51.05263157894737,58.32686980609418 L 52.63157894736844,58.4376731301939 L 54.21052631578948,58.49307479224379 L 55.78947368421052,58.49307479224376 L 57.36842105263156,58.4376731301939 L 58.94736842105266,58.32686980609418 L 60.5263157894737,58.1606648199446 L 62.10526315789474,57.93905817174516 L 63.68421052631578,57.66204986149586 L 65.26315789473682,57.32963988919667 L 66.84210526315789,56.94182825484765 L 68.42105263157896,56.49861495844874 L 70.0,56.0 L 87.5,66.0 L 87.5,66.0 L 87.50000000000003,67.57894736842107 L 87.49999999999997,69.15789473684208 L 87.49999999999994,70.73684210526312 L 87.50000000000003,72.31578947368422 L 87.50000000000003,73.89473684210529 L 87.5,75.47368421052633 L 87.49999999999997,77.05263157894734 L 87.5,78.63157894736841 L 87.50000000000006,80.21052631578948 L 87.5,81.78947368421052 L 87.5,83.36842105263159 L 87.5,84.94736842105263 L 87.5,86.5263157894737 L 87.5,88.10526315789474 L 87.5,89.68421052631578 L 87.5,91.26315789473682 L 87.5,92.84210526315789 L 87.5,94.42105263157893 L 87.5,96.0 L 105.0,196.0 L 5.0,195.0 Z" fill="rgb(255, 167, 51)" stroke="black" stroke-width="1" /><path d="M 133.0,145.0 L 150.5,45.0 L 150.50000000000003,43.42105263157896 L 150.5,41.84210526315789 L 150.49999999999997,40.26315789473682 L 150.50000000000003,38.68421052631581 L 150.50000000000003,37.1052631578948 L 150.5,35.52631578947367 L 150.5,33.9473684210526 L 150.50000000000003,32.36842105263159 L 150.50000000000003,30.78947368421055 L 150.5,29.21052631578948 L 150.5,27.63157894736844 L 150.5,26.05263157894737 L 150.5,24.47368421052633 L 150.5,22.89473684210526 L 150.5,21.31578947368422 L 150.5,19.73684210526315 L 150.5,18.15789473684211 L 150.5,16.57894736842107 L 150.5,15.0 L 168.0,5.0 L 169.57894736842107,5.249307479224399 L 171.1578947368421,5.470914127423811 L 172.7368421052631,5.664819944598321 L 174.31578947368422,5.831024930747901 L 175.89473684210532,5.969529085872608 L 177.4736842105263,6.0803324099723 L 179.05263157894737,6.163434903047062 L 180.63157894736844,6.21883656509695 L 182.21052631578948,6.246537396121909 L 183.78947368421052,6.24653739612188 L 185.36842105263156,6.218836565096979 L 186.94736842105266,6.16343490304709 L 188.5263157894737,6.0803324099723 L 190.10526315789474,5.96952908587258 L 191.68421052631578,5.83102493074793 L 193.26315789473682,5.664819944598321 L 194.8421052631579,5.470914127423811 L 196.42105263157896,5.249307479224342 L 198.0,5.0 L 215.5,14.0 L 215.5,14.0 L 215.50000000000003,15.578947368421069 L 215.49999999999997,17.15789473684211 L 215.49999999999994,18.73684210526315 L 215.50000000000003,20.31578947368422 L 215.50000000000003,21.89473684210529 L 215.5,23.4736842105263 L 215.49999999999997,25.05263157894734 L 215.5,26.63157894736841 L 215.50000000000006,28.210526315789508 L 215.5,29.78947368421052 L 215.5,31.36842105263156 L 215.5,32.94736842105263 L 215.5,34.5263157894737 L 215.5,36.10526315789474 L 215.5,37.68421052631578 L 215.5,39.26315789473685 L 215.5,40.84210526315789 L 215.5,42.42105263157893 L 215.5,44.0 L 233.0,144.0 L 133.0,145.0 Z" fill="rgb(255, 167, 51)" stroke="black" stroke-width="1" /><path d="M 142.0,200.0 L 172.0,145.0 L 172.08310249307482,145.00000000000003 L 172.33240997229916,144.99999999999997 L 172.7479224376731,144.99999999999997 L 173.32963988919667,145.0 L 174.07756232686984,145.00000000000003 L 174.99168975069253,145.0 L 176.0720221606648,144.99999999999997 L 177.3185595567867,145.0 L 178.73130193905817,145.00000000000003 L 180.31024930747924,145.0 L 182.05540166204986,145.0 L 183.9667590027701,145.0 L 186.0443213296399,145.0 L 188.28808864265926,145.0 L 190.69806094182826,145.0 L 193.27423822714678,144.99999999999997 L 196.01662049861494,145.0 L 198.92520775623268,145.0 L 202.0,145.0 L 202.0,145.0 L 205.07479224376735,145.00000000000003 L 207.983379501385,144.99999999999997 L 210.72576177285313,144.99999999999997 L 213.30193905817174,145.0 L 215.71191135734077,145.00000000000003 L 217.9556786703601,145.0 L 220.03324099722988,144.99999999999997 L 221.94459833795014,145.0 L 223.68975069252082,145.00000000000003 L 225.26869806094186,145.0 L 226.68144044321332,145.0 L 227.92797783933517,145.0 L 229.00831024930747,145.0 L 229.9224376731302,145.0 L 230.67036011080333,145.0 L 231.25207756232686,144.99999999999997 L 231.66759002770084,145.0 L 231.9168975069252,145.0 L 232.0,145.0 L 262.0,200.0 L 142.0,200.0 Z" fill="rgb(255, 167, 51)" stroke="black" stroke-width="1" /><path d="M 246.0,111.0 L 263.5,71.0 L 263.5831024930748,71.0 L 263.83240997229916,70.99999999999994 L 264.2479224376731,70.99999999999994 L 264.8296398891967,71.0 L 265.57756232686984,71.00000000000006 L 266.49168975069256,71.0 L 267.5720221606648,71.0 L 268.8185595567867,71.0 L 270.2313019390582,71.0 L 271.81024930747924,71.0 L 273.55540166204986,71.0 L 275.46675900277006,71.0 L 277.5443213296399,71.0 L 279.78808864265926,71.0 L 282.19806094182826,71.0 L 284.7742382271468,71.0 L 287.51662049861494,71.0 L 290.4252077562327,71.0 L 293.5,71.0 L 293.5,71.0 L 296.5747922437673,71.0 L 299.483379501385,70.99999999999994 L 302.22576177285316,70.99999999999994 L 304.8019390581718,71.0 L 307.21191135734074,71.00000000000006 L 309.4556786703601,71.0 L 311.5332409972299,71.0 L 313.44459833795014,71.0 L 315.18975069252076,71.0 L 316.7686980609418,71.0 L 318.1814404432133,71.0 L 319.4279778393352,71.0 L 320.50831024930744,71.0 L 321.42243767313016,71.0 L 322.17036011080336,71.0 L 322.75207756232686,71.0 L 323.16759002770084,71.0 L 323.41689750692524,71.0 L 323.5,71.0 L 341.0,111.0 L 246.0,111.0 Z" fill="rgb(255, 167, 51)" stroke="black" stroke-width="1" /></svg>