<?xml version="1.0" encoding="utf-8" ?>
<svg baseProfile="tiny" height="100%" version="1.2" width="100%" xmlns="http://www.w3.org/2000/svg" xmlns:ev="http://www.w3.org/2001/xml-events" xmlns:xlink="http://www.w3.org/1999/xlink"><defs /><path d="M 0.0,0.0 L 500.0,0.0 L 500.0,500.0 L 0.0,500.0 L 0.0,0.0 Z" fill="rgb(77, 161, 169)" stroke="black" stroke-width="1" /><path d="M 383.0,297.0 L 383.0,397.0 L 295.0,397.0 L 295.0,297.0 L 383.0,297.0 Z" fill="white" stroke="black" stroke-width="1" /><path d="M 377.0,55.0 L 377.0,221.0 L 283.0,221.0 L 283.0,55.0 L 377.0,55.0 Z" fill="white" stroke="black" stroke-width="1" /><path d="M 203.0,67.0 L 203.0,242.0 L 60.0,242.0 L 60.0,67.0 L 203.0,67.0 Z" fill="white" stroke="black" stroke-width="1" /><path d="M 207.0,312.0 L 207.0,476.0 L 47.0,476.0 L 47.0,312.0 L 207.0,312.0 Z" fill="white" stroke="black" stroke-width="1" /><path d="M 211.0,400.0 L 218.5,300.0 L 218.50000000000003,298.42105263157896 L 218.50000000000003,296.8421052631579 L 218.5,295.2631578947368 L 218.5,293.68421052631584 L 218.50000000000003,292.1052631578948 L 218.5,290.52631578947364 L 218.49999999999997,288.9473684210526 L 218.5,287.36842105263156 L 218.50000000000003,285.7894736842105 L 218.5,284.2105263157895 L 218.5,282.63157894736844 L 218.5,281.0526315789474 L 218.5,279.47368421052636 L 218.5,277.89473684210526 L 218.5,276.3157894736842 L 218.5,274.7368421052631 L 218.5,273.1578947368421 L 218.49999999999997,271.57894736842104 L 218.5,270.0 L 236.0,266.0 L 237.57894736842107,266.4986149584488 L 239.1578947368421,266.9418282548477 L 240.73684210526312,267.32963988919664 L 242.31578947368422,267.66204986149586 L 243.8947368421053,267.93905817174516 L 245.4736842105263,268.1606648199446 L 247.05263157894734,268.3268698060942 L 248.63157894736844,268.4376731301939 L 250.2105263157895,268.49307479224376 L 251.78947368421055,268.49307479224376 L 253.36842105263156,268.4376731301939 L 254.94736842105263,268.3268698060942 L 256.5263157894737,268.1606648199446 L 258.10526315789474,267.93905817174516 L 259.6842105263158,267.66204986149586 L 261.2631578947368,267.32963988919664 L 262.8421052631579,266.9418282548477 L 264.42105263157896,266.49861495844874 L 266.0,266.0 L 283.5,276.0 L 283.5,276.0 L 283.5,277.57894736842104 L 283.5,279.1578947368421 L 283.5,280.7368421052631 L 283.5,282.3157894736842 L 283.50000000000006,283.8947368421053 L 283.5,285.4736842105263 L 283.5,287.05263157894734 L 283.5,288.63157894736844 L 283.5,290.2105263157895 L 283.5,291.7894736842105 L 283.5,293.36842105263156 L 283.5,294.9473684210526 L 283.5,296.52631578947364 L 283.5,298.10526315789474 L 283.5,299.6842105263158 L 283.5,301.2631578947368 L 283.5,302.84210526315786 L 283.5,304.42105263157896 L 283.5,306.0 L 291.0,406.0 L 211.0,400.0 Z" fill="rgb(255, 167, 51)" stroke="black" stroke-width="1" /><path d="M 203.0,224.0 L 210.5,124.0 L 210.50000000000003,122.42105263157896 L 210.50000000000003,120.84210526315789 L 210.5,119.26315789473682 L 210.5,117.68421052631581 L 210.50000000000003,116.1052631578948 L 210.5,114.52631578947367 L 210.49999999999997,112.9473684210526 L 210.5,111.36842105263159 L 210.50000000000003,109.78947368421055 L 210.5,108.21052631578948 L 210.5,106.63157894736844 L 210.5,105.05263157894737 L 210.5,103.47368421052633 L 210.5,101.89473684210526 L 210.5,100.31578947368422 L 210.5,98.73684210526315 L 210.5,97.15789473684211 L 210.49999999999997,95.57894736842107 L 210.5,94.0 L 228.0,84.0 L 229.57894736842107,84.2493074792244 L 231.1578947368421,84.47091412742381 L 232.73684210526312,84.66481994459832 L 234.31578947368422,84.8310249307479 L 235.8947368421053,84.96952908587261 L 237.4736842105263,85.0803324099723 L 239.05263157894734,85.16343490304706 L 240.63157894736844,85.21883656509695 L 242.2105263157895,85.24653739612191 L 243.78947368421055,85.24653739612188 L 245.36842105263156,85.21883656509698 L 246.94736842105263,85.16343490304709 L 248.5263157894737,85.0803324099723 L 250.10526315789474,84.96952908587258 L 251.68421052631578,84.83102493074793 L 253.26315789473682,84.66481994459832 L 254.8421052631579,84.47091412742381 L 256.42105263157896,84.24930747922434 L 258.0,84.0 L 275.5,88.0 L 275.5,88.0 L 275.5,89.5789473684211 L 275.5,91.15789473684214 L 275.5,92.73684210526315 L 275.5,94.31578947368422 L 275.50000000000006,95.89473684210529 L 275.5,97.47368421052633 L 275.5,99.05263157894734 L 275.5,100.63157894736841 L 275.5,102.21052631578948 L 275.5,103.78947368421052 L 275.5,105.36842105263156 L 275.5,106.94736842105263 L 275.5,108.5263157894737 L 275.5,110.10526315789474 L 275.5,111.68421052631578 L 275.5,113.26315789473682 L 275.5,114.84210526315789 L 275.5,116.42105263157893 L 275.5,118.0 L 283.0,218.0 L 203.0,224.0 Z" fill="rgb(255, 167, 51)" stroke="black" stroke-width="1" /><path d="M 243.0,265.0 L 273.0,222.0 L 273.0831024930748,222.00000000000006 L 273.33240997229916,222.0 L 273.7479224376731,221.99999999999994 L 274.32963988919664,222.0 L 275.07756232686984,222.00000000000006 L 275.99168975069256,222.0 L 277.0720221606648,222.0 L 278.3185595567867,222.0 L 279.7313019390582,222.00000000000006 L 281.31024930747924,222.0 L 283.05540166204986,222.0 L 284.9667590027701,222.0 L 287.0443213296399,222.0 L 289.28808864265926,222.0 L 291.69806094182826,222.0 L 294.2742382271468,222.0 L 297.01662049861494,222.0 L 299.9252077562327,222.0 L 303.0,222.0 L 303.0,222.0 L 306.0747922437673,222.00000000000006 L 308.983379501385,222.0 L 311.72576177285316,221.99999999999994 L 314.30193905817174,222.0 L 316.7119113573408,222.00000000000006 L 318.9556786703601,222.0 L 321.0332409972299,222.0 L 322.94459833795014,222.0 L 324.6897506925208,222.00000000000006 L 326.26869806094186,222.0 L 327.6814404432133,222.0 L 328.9279778393352,222.0 L 330.00831024930744,222.0 L 330.92243767313016,222.0 L 331.67036011080336,222.0 L 332.25207756232686,222.0 L 332.66759002770084,222.0 L 332.91689750692524,222.0 L 333.0,222.0 L 363.0,265.0 L 243.0,265.0 Z" fill="rgb(255, 167, 51)" stroke="black" stroke-width="1" /><path d="M 120.0,307.0 L 137.5,247.0 L 137.58310249307482,247.00000000000006 L 137.83240997229916,247.0 L 138.2479224376731,246.99999999999994 L 138.8296398891967,247.0 L 139.57756232686984,247.00000000000003 L 140.49168975069253,247.0 L 141.5720221606648,246.99999999999997 L 142.8185595567867,247.0 L 144.2313019390582,247.00000000000003 L 145.8102493074792,247.0 L 147.55540166204986,247.0 L 149.46675900277006,247.0 L 151.5443213296399,247.0 L 153.78808864265926,247.0 L 156.19806094182826,247.0 L 158.77423822714678,247.0 L 161.51662049861494,247.0 L 164.42520775623268,247.0 L 167.5,247.0 L 167.5,247.0 L 170.57479224376732,247.00000000000006 L 173.48337950138503,247.0 L 176.22576177285313,246.99999999999994 L 178.80193905817177,247.0 L 181.21191135734074,247.00000000000003 L 183.4556786703601,247.0 L 185.5332409972299,246.99999999999997 L 187.44459833795014,247.0 L 189.1897506925208,247.00000000000003 L 190.7686980609418,247.0 L 192.1814404432133,247.0 L 193.4279778393352,247.0 L 194.50831024930747,247.0 L 195.42243767313016,247.0 L 196.17036011080333,247.0 L 196.75207756232686,247.0 L 197.16759002770084,247.0 L 197.4168975069252,247.0 L 197.5,247.0 L 215.0,307.0 L 120.0,307.0 Z" fill="rgb(255, 167, 51)" stroke="black" stroke-width="1" /></svg>