<?xml version="1.0" encoding="utf-8" ?>
<svg baseProfile="tiny" height="100%" version="1.2" width="100%" xmlns="http://www.w3.org/2000/svg" xmlns:ev="http://www.w3.org/2001/xml-events" xmlns:xlink="http://www.w3.org/1999/xlink"><defs /><path d="M73.0,87.0 L31.0,328.0 L132.0,440.0 L180.0,458.0 L250.0,275.0 L221.0,135.0 L159.0,113.0 L73.0,87.0 Z" fill="rgb(77, 161, 169)" stroke="black" stroke-width="1" /><path d="M230.0,275.0 L230.5,175.0 L230.5,173.42105263157896 L230.5,171.8421052631579 L230.49999999999997,170.26315789473682 L230.50000000000003,168.6842105263158 L230.50000000000003,167.1052631578948 L230.49999999999997,165.52631578947367 L230.49999999999997,163.9473684210526 L230.5,162.3684210526316 L230.50000000000003,160.78947368421055 L230.5,159.21052631578948 L230.5,157.63157894736844 L230.5,156.05263157894737 L230.5,154.47368421052633 L230.5,152.89473684210526 L230.5,151.31578947368422 L230.5,149.73684210526315 L230.5,148.1578947368421 L230.5,146.57894736842107 L230.5,145.0 L248.0,135.0 L249.57894736842104,135.49861495844877 L251.15789473684208,135.94182825484765 L252.73684210526315,136.32963988919667 L254.31578947368422,136.66204986149583 L255.8947368421053,136.9390581717452 L257.4736842105263,137.1606648199446 L259.05263157894734,137.32686980609418 L260.6315789473684,137.4376731301939 L262.2105263157895,137.4930747922438 L263.7894736842105,137.49307479224376 L265.36842105263156,137.4376731301939 L266.9473684210526,137.32686980609418 L268.5263157894737,137.1606648199446 L270.10526315789474,136.93905817174516 L271.6842105263158,136.66204986149586 L273.2631578947368,136.32963988919667 L274.84210526315786,135.94182825484765 L276.42105263157896,135.49861495844874 L278.0,135.0 L292.5,139.0 L292.5,139.0 L292.5083102493075,140.5789473684211 L292.5332409972299,142.15789473684214 L292.5747922437673,143.73684210526315 L292.63296398891964,145.31578947368422 L292.7077562326871,146.8947368421053 L292.7991689750693,148.47368421052633 L292.9072022160665,150.05263157894734 L293.0318559556787,151.6315789473684 L293.1731301939059,153.21052631578948 L293.3310249307479,154.78947368421052 L293.505540166205,156.36842105263156 L293.696675900277,157.94736842105263 L293.90443213296396,159.5263157894737 L294.1288088642659,161.10526315789474 L294.3698060941828,162.68421052631578 L294.6274238227147,164.26315789473682 L294.9016620498615,165.8421052631579 L295.1925207756233,167.42105263157893 L295.5,169.0 L296.0,250.0 L230.0,275.0 Z" fill="rgb(255, 167, 51)" stroke="black" stroke-width="1" /><path d="M216.0,56.0 L233.0,388.0 L296.0,382.0 L299.0,82.0 L216.0,56.0 Z" fill="rgb(77, 161, 169)" stroke="black" stroke-width="1" /><path d="M124.0,400.0 L124.5,319.0 L124.80747922437672,317.42105263157896 L125.0983379501385,315.8421052631579 L125.37257617728528,314.26315789473676 L125.63019390581718,312.68421052631584 L125.87119113573411,311.1052631578948 L126.09556786703598,309.52631578947364 L126.30332409972297,307.9473684210526 L126.49445983379502,306.36842105263156 L126.6689750692521,304.7894736842105 L126.82686980609418,303.2105263157895 L126.96814404432132,301.63157894736844 L127.09279778393352,300.05263157894734 L127.20083102493075,298.47368421052636 L127.29224376731301,296.89473684210526 L127.36703601108033,295.3157894736842 L127.42520775623268,293.7368421052631 L127.46675900277009,292.1578947368421 L127.49168975069253,290.57894736842104 L127.5,289.0 L142.0,285.0 L143.57894736842104,285.2493074792244 L145.15789473684208,285.47091412742384 L146.73684210526315,285.6648199445983 L148.31578947368422,285.83102493074796 L149.8947368421053,285.96952908587264 L151.4736842105263,286.0803324099723 L153.05263157894734,286.16343490304706 L154.63157894736838,286.2188365650969 L156.21052631578948,286.2465373961219 L157.78947368421052,286.2465373961219 L159.36842105263156,286.218836565097 L160.94736842105263,286.1634349030471 L162.5263157894737,286.0803324099723 L164.10526315789474,285.9695290858726 L165.68421052631578,285.83102493074796 L167.26315789473682,285.6648199445983 L168.84210526315786,285.47091412742384 L170.42105263157893,285.2493074792244 L172.0,285.0 L189.5,295.0 L189.5,295.0 L189.50000000000003,296.57894736842104 L189.5,298.1578947368421 L189.49999999999997,299.7368421052631 L189.49999999999997,301.3157894736842 L189.50000000000003,302.8947368421053 L189.5,304.4736842105263 L189.49999999999997,306.0526315789474 L189.5,307.63157894736844 L189.5,309.2105263157895 L189.5,310.7894736842105 L189.5,312.36842105263156 L189.5,313.9473684210526 L189.5,315.5263157894737 L189.5,317.10526315789474 L189.5,318.68421052631584 L189.5,320.2631578947369 L189.5,321.8421052631579 L189.5,323.42105263157896 L189.5,325.0 L190.0,425.0 L124.0,400.0 Z" fill="rgb(255, 167, 51)" stroke="black" stroke-width="1" /><path d="M498.0,7.0 L354.0,73.0 L317.0,114.0 L351.0,342.0 L426.0,274.0 L498.0,7.0 Z" fill="rgb(77, 161, 169)" stroke="black" stroke-width="1" /><path d="M70.0,283.0 L100.0,224.0 L100.08310249307482,224.00000000000003 L100.33240997229916,224.00000000000003 L100.74792243767311,223.99999999999994 L101.32963988919667,224.0 L102.07756232686984,224.00000000000006 L102.99168975069253,223.99999999999997 L104.0720221606648,223.99999999999997 L105.31855955678671,224.0 L106.73130193905817,224.0 L108.31024930747924,224.0 L110.05540166204986,224.0 L111.96675900277009,224.0 L114.0443213296399,224.0 L116.28808864265926,224.0 L118.69806094182826,224.0 L121.27423822714678,224.0 L124.01662049861494,224.0 L126.92520775623268,224.0 L130.0,224.0 L130.0,224.0 L133.07479224376735,224.00000000000003 L135.983379501385,224.00000000000003 L138.72576177285313,223.99999999999994 L141.30193905817174,224.0 L143.71191135734077,224.00000000000006 L145.9556786703601,223.99999999999997 L148.03324099722988,223.99999999999997 L149.94459833795014,224.0 L151.68975069252082,224.0 L153.26869806094186,224.0 L154.68144044321332,224.0 L155.92797783933517,224.0 L157.00831024930747,224.0 L157.9224376731302,224.0 L158.67036011080333,224.0 L159.25207756232686,224.0 L159.66759002770084,224.0 L159.9168975069252,224.0 L160.0,224.0 L190.0,283.0 L70.0,283.0 Z" fill="rgb(255, 167, 51)" stroke="black" stroke-width="1" /><path d="M593.0,6.0 L409.0,137.0 L407.0,224.0 L429.0,448.0 L492.0,482.0 L565.0,436.0 L597.0,235.0 L598.0,99.0 L593.0,6.0 Z" fill="rgb(77, 161, 169)" stroke="black" stroke-width="1" /><path d="M94.0,223.0 L111.5,163.0 L111.73268698060946,162.6925207756233 L112.11495844875347,162.40166204986147 L112.64681440443212,162.12742382271466 L113.32825484764544,161.86980609418285 L114.15927977839334,161.62880886426595 L115.13988919667591,161.40443213296396 L116.27008310249306,161.19667590027697 L117.54986149584485,161.00554016620498 L118.97922437673131,160.83102493074796 L120.55817174515235,160.67313019390582 L122.28670360110803,160.53185595567868 L124.16481994459832,160.40720221606648 L126.19252077562328,160.29916897506925 L128.36980609418282,160.20775623268696 L130.69667590027703,160.1329639889197 L133.1731301939058,160.07479224376732 L135.79916897506925,160.0332409972299 L138.57479224376732,160.00831024930747 L141.5,160.0 L141.5,160.0 L144.4252077562327,160.00831024930753 L147.20083102493075,160.03324099722988 L149.82686980609412,160.0747922437673 L152.303324099723,160.1329639889197 L154.6301939058172,160.20775623268702 L156.80747922437672,160.29916897506928 L158.83518005540165,160.40720221606645 L160.71329639889197,160.53185595567868 L162.44182825484768,160.67313019390582 L164.02077562326872,160.8310249307479 L165.45013850415512,161.00554016620498 L166.72991689750694,161.196675900277 L167.8601108033241,161.404432132964 L168.84072022160663,161.62880886426592 L169.67174515235456,161.86980609418282 L170.35318559556785,162.12742382271466 L170.88504155124656,162.4016620498615 L171.26731301939057,162.69252077562328 L171.5,163.0 L189.0,223.0 L94.0,223.0 Z" fill="rgb(255, 167, 51)" stroke="black" stroke-width="1" /></svg>