<?xml version="1.0" encoding="utf-8" ?>
<svg baseProfile="tiny" height="100%" version="1.2" width="100%" xmlns="http://www.w3.org/2000/svg" xmlns:ev="http://www.w3.org/2001/xml-events" xmlns:xlink="http://www.w3.org/1999/xlink"><defs /><path d="M295.0,145.0 L159.0,194.0 L140.0,224.0 L140.0,310.0 L186.0,341.0 L297.0,278.0 L295.0,145.0 Z" fill="rgb(77, 161, 169)" stroke="black" stroke-width="1" /><path d="M268.0695243241171,172.05534123752358 L253.06952432411705,272.0553412375236 L253.06952432411703,273.5290254480499 L253.06952432411705,275.00270965857624 L253.06952432411708,276.47639386910254 L253.06952432411703,277.95007807962884 L253.06952432411703,279.4237622901551 L253.06952432411705,280.89744650068144 L253.06952432411705,282.3711307112078 L253.06952432411705,283.8448149217341 L253.06952432411703,285.3184991322604 L253.06952432411705,286.79218334278676 L253.06952432411705,288.26586755331306 L253.06952432411705,289.73955176383936 L253.06952432411705,291.21323597436566 L253.06952432411705,292.686920184892 L253.06952432411705,294.1606043954183 L253.06952432411705,295.6342886059446 L253.06952432411705,297.1079728164709 L253.06952432411705,298.5816570269973 L253.06952432411705,300.0553412375236 L235.56952432411705,310.0553412375236 L233.99057695569599,309.55672627907484 L232.41162958727497,309.11351298267596 L230.83268221885393,308.72570134832694 L229.25373485043283,308.3932913760277 L227.67478748201177,308.11628306577836 L226.09584011359075,307.894676417579 L224.51689274516968,307.7284714314294 L222.93794537674862,307.6176681073297 L221.35899800832757,307.56226644527976 L219.78005063990653,307.5622664452798 L218.20110327148547,307.6176681073297 L216.62215590306442,307.7284714314294 L215.04320853464338,307.894676417579 L213.46426116622231,308.1162830657784 L211.88531379780127,308.3932913760277 L210.3063664293802,308.7257013483269 L208.72741906095916,309.11351298267596 L207.1484716925381,309.55672627907484 L205.56952432411705,310.0553412375236 L200.06952432411705,308.0553412375236 L200.06952432411705,308.0553412375236 L200.03628332688712,306.5290254480499 L199.9365603351974,305.00270965857624 L199.77035534904783,303.4763938691026 L199.53766836843837,301.95007807962884 L199.23849939336912,300.42376229015514 L198.87284842384003,298.89744650068144 L198.44071545985116,297.3711307112078 L197.9421005014024,295.8448149217341 L197.37700354849375,294.3184991322604 L196.74542460112536,292.79218334278676 L196.04736365929713,291.26586755331306 L195.282820723009,289.73955176383936 L194.4517957922611,288.2132359743657 L193.55428886705334,286.686920184892 L192.59029994738577,285.1606043954183 L191.55982903325832,283.6342886059447 L190.46287612467108,282.107972816471 L189.299441221624,280.5816570269973 L188.06952432411705,279.0553412375236 L173.06952432411708,189.05534123752358 L268.0695243241171,172.05534123752358 Z" fill="rgb(255, 167, 51)" stroke="black" stroke-width="1" /><path d="M437.0,134.0 L340.0,310.0 L379.0,414.0 L476.0,421.0 L492.0,418.0 L468.0,284.0 L437.0,134.0 Z" fill="rgb(77, 161, 169)" stroke="black" stroke-width="1" /><path d="M370.60185065238886,359.03797948609446 L385.60185065238886,269.03797948609446 L386.83176754989574,267.51166369662076 L387.99520245294286,265.98534790714706 L389.0921553615301,264.45903211767336 L390.1226262756576,262.9327163281997 L391.0866151953252,261.4064005387261 L391.9841221205329,259.8800847492523 L392.81514705128075,258.3537689597787 L393.5796899875689,256.827453170305 L394.27775092939714,255.30113738083134 L394.9093298767656,253.7748215913576 L395.47442682967414,252.24850580188394 L395.97304178812294,250.72219001241024 L396.40517475211186,249.1958742229366 L396.7708257216409,247.6695584334629 L397.0699946967102,246.1432426439892 L397.3026816773196,244.6169268545155 L397.4688866634692,243.09061106504183 L397.5686096551589,241.56429527556816 L397.60185065238886,240.03797948609446 L403.10185065238886,238.03797948609446 L404.6807980208099,238.28728696531886 L406.25974538923094,238.50889361351827 L407.838692757652,238.70279943069278 L409.417640126073,238.86900441684236 L410.9965874944941,239.0075085719671 L412.5755348629151,239.11831189606676 L414.1544822313362,239.20141438914152 L415.7334295997573,239.2568160511914 L417.31237696817834,239.28451688221637 L418.8913243365994,239.28451688221634 L420.4702717050204,239.2568160511914 L422.04921907344146,239.20141438914152 L423.6281664418625,239.11831189606676 L425.20711381028354,239.00750857196704 L426.7860611787046,238.8690044168424 L428.3650085471257,238.70279943069278 L429.9439559155467,238.5088936135183 L431.5229032839678,238.28728696531883 L433.10185065238886,238.03797948609446 L450.60185065238886,248.03797948609446 L450.60185065238886,248.03797948609446 L450.60185065238886,249.5116636966208 L450.60185065238886,250.9853479071471 L450.6018506523888,252.45903211767336 L450.6018506523888,253.93271632819972 L450.60185065238886,255.40640053872605 L450.60185065238886,256.8800847492523 L450.6018506523888,258.3537689597787 L450.60185065238886,259.827453170305 L450.60185065238886,261.3011373808313 L450.60185065238886,262.77482159135764 L450.60185065238886,264.24850580188394 L450.60185065238886,265.72219001241024 L450.60185065238886,267.19587422293654 L450.60185065238886,268.66955843346284 L450.60185065238886,270.1432426439892 L450.60185065238886,271.6169268545155 L450.60185065238886,273.0906110650418 L450.60185065238886,274.56429527556816 L450.60185065238886,276.03797948609446 L465.60185065238886,376.03797948609446 L370.60185065238886,359.03797948609446 Z" fill="rgb(255, 167, 51)" stroke="black" stroke-width="1" /><path d="M587.0,206.0 L540.0,310.0 L556.0,333.0 L612.0,348.0 L638.0,342.0 L647.0,207.0 L587.0,206.0 Z" fill="rgb(77, 161, 169)" stroke="black" stroke-width="1" /><path d="M561.9558957781469,306.96206414611277 L572.9558957781469,246.96206414611277 L573.0334581050167,246.96206414611282 L573.2661450856261,246.96206414611277 L573.6539567199752,246.9620641461127 L574.1968930080639,246.96206414611277 L574.8949539498922,246.9620641461128 L575.7481395454599,246.96206414611277 L576.7564497947674,246.96206414611274 L577.9198846978145,246.96206414611277 L579.2384442546013,246.9620641461128 L580.7121284651275,246.96206414611277 L582.3409373293935,246.96206414611277 L584.124870847399,246.96206414611277 L586.0639290191442,246.96206414611277 L588.1581118446289,246.96206414611277 L590.4074193238533,246.96206414611277 L592.8118514568173,246.96206414611277 L595.3714082435209,246.96206414611277 L598.0860896839641,246.96206414611277 L600.9558957781469,246.96206414611277 L600.9558957781469,246.96206414611277 L603.8257018723298,246.96206414611282 L606.540383312773,246.96206414611277 L609.0999400994765,246.9620641461127 L611.5043722324406,246.96206414611277 L613.753679711665,246.9620641461128 L615.8478625371497,246.96206414611277 L617.7869207088949,246.96206414611274 L619.5708542269005,246.96206414611277 L621.1996630911664,246.9620641461128 L622.6733473016927,246.96206414611277 L623.9919068584793,246.96206414611277 L625.1553417615264,246.96206414611277 L626.1636520108339,246.96206414611277 L627.0168376064019,246.96206414611277 L627.71489854823,246.96206414611277 L628.2578348363187,246.96206414611277 L628.6456464706678,246.96206414611277 L628.8783334512772,246.96206414611277 L628.9558957781469,246.96206414611277 L639.9558957781469,306.96206414611277 L561.9558957781469,306.96206414611277 Z" fill="rgb(255, 167, 51)" stroke="black" stroke-width="1" /><path d="M766.0,213.0 L740.0,310.0 L742.0,326.0 L765.0,343.0 L829.0,326.0 L842.0,225.0 L826.0,220.0 L766.0,213.0 Z" fill="rgb(77, 161, 169)" stroke="black" stroke-width="1" /><path d="M752.4651788699431,310.2549903840873 L762.4651788699431,250.2549903840873 L763.1438492300539,249.0250734865804 L763.9167024156495,247.86163858353328 L764.7837384267298,246.76468567494598 L765.744957263295,245.73421476081862 L766.8003589253448,244.77022584115105 L767.9499434128794,243.87271891594327 L769.1937107258988,243.04169398519534 L770.531660864403,242.27715104890726 L771.9637938283919,241.57909010707903 L773.4901096178655,240.9475111597106 L775.110608232824,240.38241420680197 L776.8252896732672,239.88379924835326 L778.6341539391951,239.4516662843643 L780.5372010306079,239.0860153148352 L782.5344309475055,238.786846339766 L784.6258436898877,238.55415935915653 L786.8114392577547,238.38795437300698 L789.0912176511065,238.28823138131722 L791.4651788699431,238.2549903840873 L791.4651788699431,238.2549903840873 L793.8391400887797,238.28823138131725 L796.1189184821314,238.38795437300698 L798.3045140499985,238.5541593591565 L800.3959267923808,238.786846339766 L802.3931567092783,239.08601531483527 L804.296203800691,239.4516662843643 L806.105068066619,239.8837992483532 L807.8197495070623,240.38241420680197 L809.4402481220206,240.9475111597106 L810.9665639114944,241.57909010707903 L812.3986968754833,242.27715104890723 L813.7366470139874,243.04169398519534 L814.9804143270069,243.87271891594327 L816.1299988145414,244.77022584115102 L817.1854004765913,245.73421476081862 L818.1466193131564,246.764685674946 L819.0136553242368,247.86163858353328 L819.7865085098323,249.02507348658037 L820.4651788699431,250.2549903840873 L830.4651788699431,310.2549903840873 L752.4651788699431,310.2549903840873 Z" fill="rgb(255, 167, 51)" stroke="black" stroke-width="1" /></svg>