<?xml version="1.0" encoding="utf-8" ?>
<svg baseProfile="tiny" height="100%" version="1.2" width="100%" xmlns="http://www.w3.org/2000/svg" xmlns:ev="http://www.w3.org/2001/xml-events" xmlns:xlink="http://www.w3.org/1999/xlink"><defs /><path d="M 5.0,5.0 L 300.0,5.0 L 300.0,300.0 L 5.0,300.0 L 5.0,5.0 Z" fill="rgb(77, 161, 169)" stroke="black" stroke-width="1" /><path d="M 291.0,136.0 L 291.0,203.0 L 122.0,203.0 L 122.0,136.0 L 291.0,136.0 Z" fill="white" stroke="black" stroke-width="1" /><path d="M 270.0,72.0 L 270.0,121.0 L 224.0,121.0 L 224.0,72.0 L 270.0,72.0 Z" fill="white" stroke="black" stroke-width="1" /><path d="M 187.0,258.0 L 187.0,271.0 L 105.0,271.0 L 105.0,258.0 L 187.0,258.0 Z" fill="white" stroke="black" stroke-width="1" /><path d="M 106.0,88.0 L 106.0,155.0 L 67.0,155.0 L 67.0,88.0 L 106.0,88.0 Z" fill="white" stroke="black" stroke-width="1" /><path d="M 166.0,588.0 L 183.5,538.0 L 184.42243767313022,536.4736842105264 L 185.2950138504155,534.9473684210526 L 186.11772853185593,533.421052631579 L 186.8905817174515,531.8947368421052 L 187.61357340720224,530.3684210526316 L 188.28670360110803,528.8421052631579 L 188.90997229916897,527.3157894736842 L 189.48337950138506,525.7894736842105 L 190.00692520775624,524.2631578947369 L 190.48060941828257,522.7368421052631 L 190.904432132964,521.2105263157895 L 191.27839335180056,519.6842105263158 L 191.60249307479225,518.1578947368421 L 191.87673130193906,516.6315789473684 L 192.10110803324102,515.1052631578948 L 192.27562326869804,513.578947368421 L 192.40027700831024,512.0526315789474 L 192.47506925207756,510.52631578947364 L 192.5,509.0 L 198.5,506.0 L 200.0263157894737,507.09695290858724 L 201.55263157894737,508.0720221606648 L 203.07894736842104,508.9252077562327 L 204.60526315789477,509.6565096952909 L 206.13157894736844,510.26592797783934 L 207.65789473684208,510.7534626038781 L 209.18421052631578,511.11911357340716 L 210.71052631578945,511.3628808864266 L 212.23684210526318,511.4847645429363 L 213.76315789473682,511.4847645429363 L 215.28947368421052,511.3628808864266 L 216.81578947368422,511.11911357340716 L 218.3421052631579,510.7534626038781 L 219.86842105263156,510.26592797783934 L 221.39473684210526,509.6565096952909 L 222.92105263157896,508.9252077562327 L 224.44736842105263,508.0720221606648 L 225.9736842105263,507.09695290858724 L 227.5,506.0 L 239.5,516.0 L 239.5,516.0 L 239.50831024930753,517.3684210526316 L 239.5332409972299,518.7368421052631 L 239.57479224376726,520.1052631578947 L 239.63296398891967,521.4736842105262 L 239.70775623268702,522.8421052631579 L 239.79916897506928,524.2105263157895 L 239.90720221606645,525.578947368421 L 240.03185595567868,526.9473684210526 L 240.17313019390585,528.3157894736842 L 240.33102493074793,529.6842105263158 L 240.50554016620498,531.0526315789474 L 240.696675900277,532.421052631579 L 240.904432132964,533.7894736842105 L 241.12880886426592,535.1578947368421 L 241.36980609418282,536.5263157894738 L 241.62742382271466,537.8947368421052 L 241.9016620498615,539.2631578947369 L 242.19252077562328,540.6315789473684 L 242.5,542.0 L 260.0,614.0 L 166.0,588.0 Z" fill="rgb(255, 167, 51)" stroke="black" stroke-width="1" /><path d="M 60.0,210.0 L 77.5,138.0 L 77.80747922437675,136.63157894736844 L 78.0983379501385,135.26315789473685 L 78.37257617728531,133.8947368421052 L 78.63019390581718,132.52631578947367 L 78.87119113573408,131.15789473684214 L 79.09556786703601,129.78947368421052 L 79.303324099723,128.4210526315789 L 79.49445983379502,127.05263157894737 L 79.6689750692521,125.68421052631581 L 79.82686980609418,124.31578947368422 L 79.96814404432132,122.94736842105266 L 80.09279778393352,121.57894736842104 L 80.20083102493075,120.21052631578948 L 80.29224376731301,118.84210526315789 L 80.36703601108033,117.4736842105263 L 80.42520775623268,116.10526315789474 L 80.46675900277009,114.73684210526318 L 80.4916897506925,113.36842105263156 L 80.5,112.0 L 92.5,102.0 L 94.0263157894737,102.54847645429365 L 95.55263157894737,103.0360110803324 L 97.07894736842104,103.46260387811631 L 98.60526315789477,103.82825484764544 L 100.13157894736844,104.1329639889197 L 101.65789473684208,104.37673130193906 L 103.18421052631578,104.55955678670358 L 104.71052631578945,104.68144044321329 L 106.23684210526318,104.74238227146816 L 107.76315789473682,104.74238227146816 L 109.28947368421052,104.68144044321329 L 110.81578947368422,104.55955678670358 L 112.34210526315789,104.37673130193906 L 113.86842105263156,104.13296398891964 L 115.39473684210526,103.82825484764544 L 116.92105263157896,103.46260387811634 L 118.44736842105263,103.0360110803324 L 119.9736842105263,102.54847645429362 L 121.5,102.0 L 127.5,105.0 L 127.5,105.0 L 127.52493074792247,106.5263157894737 L 127.59972299168976,108.05263157894737 L 127.7243767313019,109.57894736842104 L 127.89889196675901,111.10526315789471 L 128.123268698061,112.63157894736844 L 128.39750692520778,114.15789473684208 L 128.7216066481994,115.68421052631578 L 129.09556786703604,117.21052631578945 L 129.5193905817175,118.73684210526318 L 129.99307479224376,120.26315789473682 L 130.51662049861494,121.78947368421052 L 131.090027700831,123.31578947368422 L 131.71329639889197,124.84210526315792 L 132.38642659279776,126.36842105263156 L 133.10941828254846,127.89473684210526 L 133.88227146814404,129.42105263157893 L 134.7049861495845,130.9473684210526 L 135.5775623268698,132.47368421052633 L 136.5,134.0 L 154.0,184.0 L 60.0,210.0 Z" fill="rgb(255, 167, 51)" stroke="black" stroke-width="1" /><path d="M 59.0,478.0 L 70.0,462.0 L 70.52908587257619,461.07756232686984 L 71.16897506925207,460.20498614958444 L 71.91966759002767,459.382271468144 L 72.78116343490308,458.60941828254846 L 73.75346260387815,457.8864265927978 L 74.83656509695291,457.213296398892 L 76.03047091412742,456.590027700831 L 77.33518005540165,456.016620498615 L 78.75069252077563,455.4930747922438 L 80.2770083102493,455.01939058171746 L 81.91412742382272,454.59556786703604 L 83.66204986149583,454.22160664819944 L 85.52077562326869,453.8975069252077 L 87.49030470914127,453.62326869806094 L 89.5706371191136,453.398891966759 L 91.76177285318559,453.2243767313019 L 94.06371191135736,453.09972299168976 L 96.47645429362882,453.02493074792244 L 99.0,453.0 L 99.0,453.0 L 101.52354570637121,453.0249307479225 L 103.93628808864267,453.09972299168976 L 106.23822714681438,453.2243767313019 L 108.42936288088643,453.398891966759 L 110.50969529085876,453.623268698061 L 112.47922437673128,453.8975069252078 L 114.33795013850414,454.22160664819944 L 116.08587257617728,454.595567867036 L 117.72299168975073,455.0193905817175 L 119.24930747922437,455.49307479224376 L 120.66481994459835,456.01662049861494 L 121.96952908587258,456.590027700831 L 123.16343490304712,457.213296398892 L 124.24653739612188,457.88642659279776 L 125.21883656509698,458.6094182825485 L 126.0803324099723,459.38227146814404 L 126.8310249307479,460.2049861495845 L 127.47091412742381,461.0775623268698 L 128.0,462.0 L 139.0,478.0 L 59.0,478.0 Z" fill="rgb(255, 167, 51)" stroke="black" stroke-width="1" /><path d="M 323.0,231.0 L 330.5,187.0 L 330.72160664819944,186.6925207756233 L 331.0706371191136,186.4016620498615 L 331.54709141274236,186.12742382271463 L 332.15096952908584,185.86980609418285 L 332.88227146814404,185.62880886426595 L 333.7409972299169,185.404432132964 L 334.7271468144044,185.196675900277 L 335.84072022160666,185.00554016620498 L 337.08171745152356,184.83102493074793 L 338.4501385041551,184.67313019390582 L 339.9459833795014,184.53185595567868 L 341.56925207756234,184.40720221606648 L 343.31994459833794,184.29916897506925 L 345.19806094182826,184.20775623268696 L 347.20360110803324,184.13296398891967 L 349.3365650969529,184.07479224376732 L 351.59695290858724,184.0332409972299 L 353.9847645429363,184.00831024930744 L 356.5,184.0 L 356.5,184.0 L 359.01523545706374,184.0083102493075 L 361.40304709141276,184.0332409972299 L 363.66343490304706,184.07479224376726 L 365.79639889196676,184.1329639889197 L 367.8019390581718,184.20775623268702 L 369.680055401662,184.29916897506922 L 371.43074792243766,184.40720221606648 L 373.0540166204986,184.53185595567868 L 374.5498614958449,184.67313019390585 L 375.91828254847644,184.8310249307479 L 377.1592797783934,185.00554016620498 L 378.2728531855956,185.196675900277 L 379.2590027700831,185.404432132964 L 380.11772853185596,185.62880886426592 L 380.84903047091416,185.86980609418282 L 381.45290858725764,186.12742382271466 L 381.9293628808864,186.4016620498615 L 382.27839335180056,186.69252077562325 L 382.5,187.0 L 390.0,231.0 L 323.0,231.0 Z" fill="rgb(255, 167, 51)" stroke="black" stroke-width="1" /></svg>